<?xml version="1.0" standalone="no"?>
<!DOCTYPE svg PUBLIC "-//W3C//DTD SVG 20010904//EN"
 "http://www.w3.org/TR/2001/REC-SVG-20010904/DTD/svg10.dtd">
<svg version="1.0" xmlns="http://www.w3.org/2000/svg"
 width="200.000000pt" height="200.000000pt" viewBox="0 0 200.000000 200.000000"
 preserveAspectRatio="xMidYMid meet">

<g transform="translate(0.000000,200.000000) scale(0.100000,-0.100000)"
fill="#000000" stroke="none">
<path d="M0 1000 l0 -1000 1000 0 1000 0 0 1000 0 1000 -1000 0 -1000 0 0
-1000z m420 108 l0 -32 33 32 c23 22 43 32 65 32 30 0 32 -2 32 -38 0 -29 -7
-45 -30 -67 l-30 -29 0 32 c0 30 -2 32 -38 32 -29 0 -45 -7 -65 -28 -34 -36
-34 -42 3 -42 27 0 30 -3 30 -33 0 -25 -9 -42 -34 -66 l-35 -34 -3 34 c-2 28
-8 35 -31 39 l-28 5 30 29 c22 21 31 39 31 62 0 29 -3 33 -30 36 l-31 3 28 32
c22 26 36 33 66 33 35 0 37 -2 37 -32z m334 -94 c20 -53 36 -100 36 -105 0
-20 -38 -7 -48 16 -9 20 -19 25 -47 25 -29 0 -36 -4 -41 -25 -4 -16 -13 -25
-25 -25 -25 0 -24 12 9 100 16 41 32 83 35 93 4 9 15 17 25 17 15 0 27 -21 56
-96z m801 87 c3 -6 -4 -15 -15 -21 -23 -13 -27 -30 -5 -30 8 0 15 -7 15 -15 0
-8 -7 -15 -15 -15 -10 0 -15 -15 -17 -57 -2 -46 -7 -59 -20 -61 -16 -3 -18 5
-18 57 0 48 -3 61 -15 61 -8 0 -15 6 -15 14 0 8 7 16 15 20 8 3 15 12 15 20 0
27 61 49 75 27z m75 -31 c0 -11 7 -20 15 -20 8 0 15 -7 15 -15 0 -8 -7 -15
-15 -15 -11 0 -15 -12 -15 -45 0 -33 4 -45 15 -45 8 0 15 -7 15 -15 0 -18 -41
-20 -58 -3 -7 7 -12 34 -12 60 0 36 -4 48 -15 48 -8 0 -15 7 -15 15 0 8 7 15
15 15 8 0 15 9 15 20 0 13 7 20 20 20 13 0 20 -7 20 -20z m-702 -38 c11 -14
11 -18 -2 -20 -8 -2 -24 2 -36 8 -20 11 -40 6 -40 -10 0 -5 15 -12 33 -15 40
-9 57 -22 57 -46 0 -41 -63 -64 -111 -39 -25 14 -25 40 1 40 11 0 20 -4 20
-10 0 -5 11 -10 25 -10 38 0 31 27 -9 34 -60 11 -75 58 -26 83 30 16 70 9 88
-15z m140 12 c27 -19 29 -44 2 -44 -11 0 -20 5 -20 10 0 22 -40 9 -46 -15 -12
-47 26 -86 51 -52 13 18 45 23 45 7 0 -19 -40 -50 -66 -50 -41 0 -63 18 -70
56 -8 43 8 81 38 94 33 13 41 12 66 -6z m180 -11 c6 -9 12 -27 12 -40 0 -21
-4 -23 -50 -23 -52 0 -61 -8 -34 -31 12 -10 20 -10 35 -1 20 13 49 16 49 5 0
-19 -37 -43 -66 -43 -54 0 -87 53 -68 109 18 49 91 63 122 24z m146 16 c74
-34 46 -149 -36 -149 -81 0 -95 125 -18 153 23 8 27 8 54 -4z m-844 -82 c0
-24 -8 -41 -29 -61 l-29 -28 -4 28 c-2 23 -9 30 -32 32 l-28 4 28 29 c20 21
37 29 61 29 31 0 33 -2 33 -33z"/>
<path d="M686 1028 c-9 -35 -8 -38 15 -38 16 0 19 4 14 23 -11 35 -22 41 -29
15z"/>
<path d="M1171 1017 c-14 -17 -4 -27 26 -27 26 0 32 25 7 34 -21 8 -20 8 -33
-7z"/>
<path d="M1337 1013 c-11 -11 -8 -58 5 -71 19 -19 38 -14 48 14 7 17 7 32 0
45 -10 19 -40 26 -53 12z"/>
</g>
</svg>
