<?xml version="1.0" standalone="no"?>
<!DOCTYPE svg PUBLIC "-//W3C//DTD SVG 20010904//EN"
 "http://www.w3.org/TR/2001/REC-SVG-20010904/DTD/svg10.dtd">
<svg version="1.0" xmlns="http://www.w3.org/2000/svg"
 width="512.000000pt" height="512.000000pt" viewBox="0 0 512.000000 512.000000"
 preserveAspectRatio="xMidYMid meet">

<g transform="translate(0.000000,512.000000) scale(0.100000,-0.100000)"
fill="#000000" stroke="none">
<path d="M166 5100 c-66 -26 -122 -82 -146 -147 -20 -53 -20 -81 -20 -2393 0
-2312 0 -2340 20 -2393 25 -66 80 -121 148 -147 51 -20 87 -20 2392 -20 2312
0 2340 0 2393 20 66 25 121 80 147 148 20 51 20 87 20 2392 0 2305 0 2341 -20
2392 -26 68 -81 123 -147 148 -53 20 -80 20 -2396 20 -2287 -1 -2343 -1 -2391
-20z m2053 -1193 c7 -9 12 -105 13 -283 l3 -269 325 0 325 0 3 269 c1 178 6
274 13 283 16 18 424 19 436 1 4 -7 10 -134 13 -283 l5 -270 270 -5 c149 -3
276 -9 283 -13 18 -12 17 -420 -1 -436 -9 -7 -105 -12 -283 -13 l-269 -3 0
-325 0 -325 269 -3 c178 -1 274 -6 283 -13 18 -16 19 -424 1 -436 -7 -4 -134
-10 -283 -13 l-270 -5 -5 -270 c-3 -148 -9 -276 -13 -282 -12 -19 -420 -18
-436 0 -7 9 -12 105 -13 283 l-3 269 -325 0 -325 0 -3 -269 c-1 -178 -6 -274
-13 -283 -9 -10 -57 -13 -213 -13 -110 0 -208 5 -216 10 -13 8 -16 54 -20 282
l-5 273 -270 5 c-148 3 -276 9 -282 13 -19 12 -18 420 0 436 9 7 105 12 283
13 l269 3 0 325 0 325 -269 3 c-178 1 -274 6 -283 13 -18 16 -19 424 0 436 6
4 134 10 282 13 l270 5 5 270 c3 149 9 276 13 283 12 18 420 17 436 -1z"/>
<path d="M2235 2878 c-3 -7 -4 -155 -3 -328 l3 -315 325 0 325 0 0 325 0 325
-323 3 c-254 2 -324 0 -327 -10z"/>
</g>
</svg>
