<?xml version="1.0" standalone="no"?>
<!DOCTYPE svg PUBLIC "-//W3C//DTD SVG 20010904//EN"
 "http://www.w3.org/TR/2001/REC-SVG-20010904/DTD/svg10.dtd">
<svg version="1.0" xmlns="http://www.w3.org/2000/svg"
 width="499.000000pt" height="499.000000pt" viewBox="0 0 499.000000 499.000000"
 preserveAspectRatio="xMidYMid meet">

<g transform="translate(0.000000,499.000000) scale(0.100000,-0.100000)"
fill="#000000" stroke="none">
<path d="M2310 4980 c-125 -12 -207 -26 -370 -62 -451 -101 -895 -352 -1231
-698 -351 -361 -568 -783 -665 -1295 -23 -118 -27 -176 -31 -372 -8 -340 23
-555 120 -843 240 -718 786 -1281 1502 -1553 321 -122 594 -165 960 -154 169
6 372 28 397 43 5 3 46 14 91 25 337 80 714 265 982 483 290 236 525 534 685
869 73 153 111 255 157 422 72 266 76 298 77 635 1 334 -2 368 -60 593 -82
325 -173 529 -360 812 -339 515 -907 901 -1527 1039 -231 52 -528 75 -727 56z
m453 -105 c562 -66 1049 -302 1445 -703 359 -363 589 -823 668 -1337 26 -165
26 -521 1 -685 -82 -529 -328 -1008 -708 -1375 -291 -281 -596 -461 -979 -578
-245 -75 -423 -101 -695 -100 -152 0 -233 5 -341 22 -502 76 -951 297 -1315
649 -388 374 -631 843 -716 1382 -25 160 -25 528 0 689 120 765 569 1396 1267
1779 238 130 611 240 905 265 109 10 354 5 468 -8z"/>
<path d="M2296 4778 c-9 -12 -16 -41 -16 -63 0 -40 4 -47 82 -164 21 -30 24
-91 6 -109 -20 -20 -47 -13 -62 16 l-15 27 -1 -35 0 -35 -20 25 c-11 14 -37
53 -56 88 -33 57 -35 65 -21 80 24 26 30 65 17 110 -14 55 -39 68 -96 52 -24
-7 -44 -13 -44 -14 21 -108 57 -353 53 -363 -6 -14 15 -17 33 -5 8 5 8 28 -2
86 -8 44 -12 81 -10 83 2 3 22 -27 45 -65 50 -86 66 -100 92 -84 14 9 25 10
40 2 41 -22 86 15 89 75 4 66 -2 85 -50 150 -51 69 -58 91 -40 126 14 25 35
24 54 -3 15 -22 16 -22 16 -2 0 46 -66 62 -94 22z m-132 -50 c30 -42 16 -128
-20 -128 -12 0 -36 127 -27 143 8 14 32 7 47 -15z"/>
<path d="M2455 4610 c0 -183 1 -190 20 -190 19 0 20 7 20 190 0 183 -1 190
-20 190 -19 0 -20 -7 -20 -190z"/>
<path d="M2536 4778 c-10 -37 -7 -42 12 -25 10 10 27 17 36 17 19 0 19 0 0
-277 -5 -78 -5 -83 14 -83 19 0 20 9 27 168 3 92 8 173 10 179 5 15 35 6 53
-15 10 -14 12 -11 12 15 0 38 -12 43 -95 43 -57 0 -63 -2 -69 -22z"/>
<path d="M2730 4785 c0 -3 10 -49 21 -103 18 -84 20 -107 11 -172 -6 -42 -14
-83 -17 -93 -6 -13 -2 -17 18 -17 23 0 25 4 31 76 8 87 31 156 80 237 31 52
33 57 15 57 -11 0 -22 -8 -25 -17 -3 -10 -18 -45 -33 -78 l-28 -60 -13 75
c-16 100 -16 100 -40 100 -11 0 -20 -2 -20 -5z"/>
<path d="M1915 4726 c-25 -7 -39 -18 -38 -27 2 -10 83 -339 88 -356 0 -1 29 5
63 14 61 15 69 23 56 57 -5 14 -8 13 -23 -4 -9 -10 -27 -22 -42 -25 -24 -6
-26 -3 -42 67 -10 40 -17 76 -17 81 0 4 14 7 30 7 31 0 35 9 21 44 -7 18 -8
18 -14 2 -13 -34 -49 -15 -63 34 -8 25 -14 52 -14 61 0 21 37 31 62 18 19 -10
23 -3 12 25 -7 19 -24 19 -79 2z"/>
<path d="M3123 4691 c-92 -57 -149 -299 -83 -353 12 -10 33 -18 46 -18 61 0
141 128 151 240 7 69 -1 104 -27 130 -25 25 -46 25 -87 1z m73 -26 c33 -50
-12 -233 -72 -292 -39 -40 -49 -41 -71 -7 -15 23 -15 34 -5 97 15 86 56 181
90 208 32 25 38 24 58 -6z"/>
<path d="M1801 4691 c-7 -5 -10 -14 -7 -20 10 -16 55 -284 46 -274 -4 4 -39
64 -76 133 -53 96 -73 125 -86 122 -21 -4 -23 -20 -4 -41 7 -9 48 -79 90 -156
87 -157 87 -157 102 -147 8 5 6 36 -7 112 -11 58 -25 144 -32 192 -10 69 -15
85 -26 79z"/>
<path d="M3335 4618 c-12 -39 -116 -282 -131 -305 -13 -20 -12 -23 5 -33 26
-13 31 -13 31 3 0 26 59 152 73 155 8 2 22 -4 31 -13 15 -15 17 -15 25 7 7 20
5 23 -16 26 -35 5 -37 21 -9 85 23 51 28 56 48 48 13 -4 28 -18 34 -30 10 -19
12 -20 18 -6 14 39 12 41 -91 82 -6 2 -14 -6 -18 -19z"/>
<path d="M1584 4614 c-7 -3 15 -63 57 -158 37 -85 71 -165 75 -180 5 -22 9
-24 26 -15 11 6 17 16 14 22 -2 7 -34 79 -70 161 -36 82 -66 155 -66 162 0 14
-14 17 -36 8z"/>
<path d="M1496 4572 c-3 -6 10 -39 30 -74 20 -34 52 -94 71 -133 l35 -69 -78
71 c-44 39 -95 87 -113 107 -32 33 -59 44 -73 31 -3 -3 21 -56 54 -118 32 -62
71 -137 86 -167 15 -30 28 -57 29 -59 1 -1 7 0 13 4 8 5 8 11 -1 21 -14 17
-130 237 -126 240 1 1 53 -44 115 -101 72 -66 118 -102 127 -98 8 3 15 6 15 8
0 16 -179 344 -184 337z"/>
<path d="M3590 4490 c-10 -18 -8 -20 18 -20 16 0 31 -3 34 -6 7 -6 -135 -247
-164 -280 -14 -16 -15 -23 -6 -32 7 -7 17 -12 22 -12 6 1 35 44 65 98 95 169
120 205 137 191 8 -6 14 -18 14 -25 0 -22 16 -16 27 9 10 22 7 26 -52 60 -74
43 -81 44 -95 17z"/>
<path d="M1278 4455 c-3 -3 28 -55 69 -116 41 -60 81 -125 89 -145 14 -32 13
-38 -1 -60 -34 -52 -72 -21 -183 148 -64 98 -71 106 -88 93 -18 -13 -18 -14 2
-37 12 -13 48 -63 82 -113 87 -131 136 -170 181 -145 60 32 48 84 -55 246 -87
135 -88 136 -96 129z"/>
<path d="M3710 4283 c-47 -65 -98 -133 -114 -151 -27 -31 -28 -34 -13 -49 9
-9 18 -15 20 -12 1 2 20 29 40 59 69 101 61 95 101 70 20 -12 36 -27 36 -33 0
-7 -25 -42 -54 -78 -49 -60 -52 -68 -39 -82 14 -14 25 -2 106 111 49 70 101
140 116 155 25 27 25 29 7 42 -17 13 -22 9 -58 -45 -22 -33 -44 -62 -49 -65
-7 -5 -38 11 -78 41 -2 2 19 32 47 67 37 48 48 67 39 76 -6 6 -14 11 -17 11
-3 0 -43 -53 -90 -117z"/>
<path d="M2285 4304 c-358 -53 -677 -189 -936 -400 -88 -72 -242 -232 -310
-324 -165 -221 -278 -479 -336 -768 -14 -68 -18 -137 -18 -322 0 -209 3 -247
24 -345 104 -490 376 -897 780 -1166 552 -370 1266 -409 1850 -102 349 182
618 457 790 803 129 262 180 464 188 755 7 261 -19 436 -98 661 -132 375 -381
692 -719 918 -177 118 -423 219 -650 267 -86 18 -144 22 -320 24 -118 2 -228
1 -245 -1z m288 -281 c146 -454 139 -435 172 -445 177 -52 263 -90 380 -167
92 -60 249 -220 300 -304 l40 -66 350 -3 350 -3 -95 -71 c-52 -38 -177 -130
-276 -203 l-181 -132 -6 -162 c-4 -133 -10 -179 -31 -255 -45 -163 -111 -293
-206 -411 l-52 -64 21 -66 c12 -36 59 -182 105 -323 46 -142 79 -258 74 -258
-6 0 -131 88 -279 196 l-270 196 -52 -20 c-263 -102 -524 -108 -785 -17 l-103
36 -267 -194 c-147 -107 -272 -197 -279 -201 -15 -8 -18 -21 107 365 l93 285
-52 64 c-158 196 -241 439 -241 703 l0 124 -275 199 c-151 110 -275 202 -275
207 0 4 156 7 348 8 l347 0 45 71 c25 40 83 110 130 158 141 142 296 235 485
290 l90 26 104 322 c58 177 108 322 111 322 3 0 36 -93 73 -207z"/>
<path d="M2205 3521 c-182 -55 -308 -127 -444 -256 -58 -54 -186 -213 -179
-221 2 -2 49 -4 105 -5 l102 -1 56 61 c78 84 164 146 271 197 l91 44 22 72
c13 40 26 85 31 101 5 15 8 27 7 26 -1 0 -29 -9 -62 -18z"/>
<path d="M2733 3527 c2 -7 17 -52 33 -100 l28 -88 84 -39 c102 -48 202 -121
276 -201 l56 -60 106 3 106 3 -59 80 c-109 147 -257 267 -418 340 -95 44 -219
80 -212 62z"/>
<path d="M2104 3246 c-81 -43 -147 -93 -209 -155 l-49 -51 131 0 132 0 35 113
c20 62 36 116 36 120 0 12 -13 8 -76 -27z"/>
<path d="M2820 3271 c0 -6 16 -60 36 -120 l35 -111 132 0 131 0 -49 51 c-59
60 -149 126 -222 163 -58 29 -63 30 -63 17z"/>
<path d="M1430 2501 c0 -230 68 -447 195 -627 71 -99 69 -99 105 13 l33 98
-33 55 c-66 111 -120 287 -120 389 0 38 -3 42 -84 100 -46 34 -87 61 -90 61
-3 0 -6 -40 -6 -89z"/>
<path d="M3473 2529 c-82 -60 -83 -61 -83 -104 0 -102 -57 -284 -122 -390
l-31 -50 32 -98 c37 -112 35 -112 106 -13 88 125 153 280 180 436 16 88 21
280 8 280 -5 -1 -45 -28 -90 -61z"/>
<path d="M3270 2381 c-41 -31 -88 -65 -103 -76 l-27 -20 36 -110 c19 -60 38
-117 40 -125 7 -21 50 56 85 151 27 73 55 209 47 227 -2 5 -37 -16 -78 -47z"/>
<path d="M1654 2382 c3 -27 13 -75 21 -108 19 -72 96 -238 106 -227 3 5 21 54
38 110 17 56 34 108 36 116 4 8 -33 40 -94 85 -55 40 -103 72 -107 72 -3 0 -4
-22 0 -48z"/>
<path d="M2390 1742 l-105 -77 65 -12 c83 -15 217 -15 300 0 l65 12 -79 59
c-44 32 -93 67 -110 77 l-31 18 -105 -77z"/>
<path d="M2159 1575 c-41 -31 -75 -60 -77 -64 -5 -13 161 -62 261 -77 166 -25
326 -12 491 41 47 15 86 31 86 35 0 4 -35 33 -77 64 -65 47 -83 56 -108 52
-16 -3 -57 -10 -90 -15 -86 -15 -221 -13 -312 4 -43 8 -83 15 -89 15 -6 0 -44
-25 -85 -55z"/>
<path d="M3973 4232 c-6 -11 -62 -74 -124 -142 l-113 -123 49 -43 c47 -42 50
-43 68 -26 18 16 18 17 -11 24 -16 4 -35 14 -42 23 -14 16 -8 27 54 95 l39 43
22 -25 c21 -24 24 -25 38 -10 15 14 14 17 -14 34 l-31 19 43 47 c24 26 46 48
50 50 11 5 49 -50 42 -62 -3 -6 5 -1 18 12 l24 24 -45 39 c-25 21 -47 39 -50
39 -3 0 -10 -8 -17 -18z"/>
<path d="M946 4206 c-55 -43 -30 -133 62 -229 103 -107 212 -118 212 -22 0 44
-18 55 -22 14 -2 -18 -11 -37 -21 -43 -42 -27 -188 98 -224 192 -17 44 -17 45
6 63 16 13 31 17 50 12 26 -6 26 -6 7 16 -24 27 -34 26 -70 -3z"/>
<path d="M810 4065 c-7 -9 -11 -17 -9 -18 2 -2 65 -60 140 -130 117 -108 139
-124 149 -112 7 9 11 17 9 18 -2 2 -65 60 -140 130 -117 109 -139 125 -149
112z"/>
<path d="M4215 4000 c-9 -14 -252 -217 -267 -223 -10 -3 -8 -9 4 -23 17 -18
19 -17 55 17 97 91 225 191 238 185 26 -10 16 -47 -21 -82 -41 -39 -78 -52
-99 -34 -12 10 -15 9 -15 -9 0 -51 111 -26 161 37 35 46 35 70 -2 108 -35 36
-44 40 -54 24z"/>
<path d="M735 3980 c-3 -5 -1 -10 5 -10 8 0 188 -137 225 -171 5 -5 -59 14
-143 42 -122 42 -154 49 -166 40 -13 -11 -4 -21 52 -63 37 -28 104 -82 150
-120 45 -38 87 -66 92 -63 6 3 -11 22 -38 42 -75 57 -182 145 -182 149 0 2 64
-19 142 -46 134 -47 168 -54 168 -31 0 8 -284 241 -294 241 -3 0 -8 -4 -11
-10z"/>
<path d="M4334 3841 c-22 -22 -203 -146 -256 -176 -31 -18 -34 -23 -23 -38 11
-16 19 -13 90 35 l77 53 24 -30 c13 -16 24 -34 24 -40 0 -11 -124 -95 -140
-95 -15 0 -12 -26 4 -39 10 -9 16 -9 21 -1 7 11 190 138 262 181 38 23 41 28
30 43 -12 17 -18 15 -81 -29 -37 -26 -68 -46 -70 -44 -18 24 -46 68 -46 72 0
7 108 77 119 77 19 0 20 18 3 33 -17 15 -20 15 -38 -2z"/>
<path d="M584 3783 c-10 -16 -2 -23 52 -56 35 -21 65 -41 68 -46 3 -4 -5 -24
-17 -44 l-22 -37 -69 46 c-65 44 -70 46 -83 29 -12 -17 -8 -21 35 -45 55 -30
240 -147 264 -168 14 -12 18 -11 27 7 10 18 7 23 -26 40 -21 11 -57 33 -80 48
l-42 29 21 34 c11 19 22 37 24 39 4 5 102 -57 132 -83 23 -20 24 -20 37 -2 13
17 5 24 -113 98 -70 44 -141 91 -159 104 -38 29 -35 28 -49 7z"/>
<path d="M4323 3556 c-145 -83 -161 -95 -150 -110 12 -16 17 -15 64 16 28 18
101 60 162 93 69 38 110 65 108 74 -1 8 -6 16 -12 17 -5 1 -83 -39 -172 -90z"/>
<path d="M451 3564 c-32 -41 -27 -78 19 -127 96 -105 271 -150 316 -81 14 20
14 29 4 53 -16 41 -42 51 -27 11 25 -66 -54 -81 -162 -30 -84 40 -118 65 -137
102 -14 27 -14 31 2 49 9 10 26 19 37 19 21 0 21 0 1 15 -26 20 -29 19 -53
-11z"/>
<path d="M4425 3495 c-66 -33 -140 -69 -165 -80 -25 -10 -47 -20 -49 -22 -3
-2 34 -94 46 -112 1 -2 13 -1 27 3 l24 6 -30 30 c-16 17 -28 36 -26 42 3 7 74
45 159 86 140 66 165 84 141 102 -4 3 -61 -22 -127 -55z"/>
<path d="M4525 3349 c-49 -22 -127 -54 -172 -71 -72 -27 -81 -33 -73 -49 9
-16 18 -14 118 28 59 25 136 56 172 70 76 29 72 26 64 47 -8 20 -2 21 -109
-25z"/>
<path d="M342 3320 c-19 -55 -20 -60 -4 -60 9 0 89 -29 177 -64 88 -36 163
-62 167 -58 4 4 16 31 27 59 l21 53 -31 15 c-29 16 -30 16 -20 -4 15 -26 14
-43 -2 -66 -13 -17 -17 -17 -85 10 -40 16 -72 32 -72 37 0 4 9 17 20 28 l20
20 -25 10 c-33 13 -33 13 -32 -2 2 -55 -7 -58 -82 -27 -57 24 -62 39 -27 74
23 23 23 23 2 29 -11 3 -23 6 -27 6 -3 0 -15 -27 -27 -60z"/>
<path d="M4640 3281 c-8 -5 -85 -33 -170 -61 -85 -29 -157 -54 -158 -56 -2 -1
-1 -12 3 -23 6 -19 8 -19 28 -7 12 8 87 35 166 61 113 37 145 45 151 34 21
-33 -45 -79 -114 -79 -23 0 -38 6 -45 18 -9 16 -10 16 -16 -1 -9 -22 9 -44 43
-52 54 -11 172 43 172 79 0 17 -32 96 -39 96 -3 0 -13 -5 -21 -9z"/>
<path d="M283 3143 c-17 -59 -20 -79 -10 -85 26 -16 37 -9 31 22 -5 22 -3 30
7 30 19 0 289 -80 312 -92 21 -11 22 -11 31 20 6 17 3 22 -11 22 -33 0 -317
86 -320 97 -2 6 6 21 18 32 18 17 19 21 7 21 -9 0 -22 2 -30 5 -9 4 -20 -17
-35 -72z"/>
<path d="M4565 3059 c-82 -21 -162 -40 -177 -41 -22 -2 -28 -7 -28 -25 0 -13
1 -23 3 -23 1 0 80 20 175 44 142 36 174 42 179 30 9 -24 -5 -44 -42 -59 -50
-22 -101 -19 -118 5 -14 20 -27 17 -27 -6 0 -62 175 -56 213 7 10 17 -9 110
-22 108 -3 0 -73 -18 -156 -40z"/>
<path d="M250 3022 c0 -12 22 -29 65 -50 36 -17 65 -36 65 -41 0 -5 -35 -13
-77 -17 -72 -8 -78 -11 -81 -33 -3 -17 0 -22 11 -18 7 3 56 11 108 17 79 11
105 10 164 -2 39 -9 77 -19 86 -22 12 -5 18 -1 21 16 4 23 1 25 -76 36 -82 13
-156 44 -243 103 -37 24 -43 26 -43 11z"/>
<path d="M4720 2905 c-25 -6 -108 -22 -186 -35 -136 -23 -140 -25 -136 -47 3
-17 8 -21 21 -14 9 5 93 21 186 37 94 15 172 29 174 31 2 2 0 11 -5 21 -8 17
-13 18 -54 7z"/>
<path d="M548 2808 c13 -13 17 -88 5 -88 -9 0 -319 40 -337 43 -6 1 -12 -8
-14 -20 -3 -20 1 -23 35 -23 52 -1 319 -36 332 -44 10 -7 18 25 23 93 3 30 0
35 -26 42 -22 6 -26 5 -18 -3z"/>
<path d="M4778 2805 c-7 -8 -252 -35 -315 -35 -42 0 -53 -3 -53 -16 0 -9 6
-14 14 -11 20 8 243 30 257 25 6 -2 -50 -33 -125 -68 -122 -58 -152 -80 -128
-93 4 -2 66 2 137 9 72 7 156 14 188 16 41 2 57 6 57 16 0 8 -6 12 -15 9 -20
-8 -265 -30 -271 -24 -2 2 57 32 131 67 116 55 135 67 135 87 0 23 -3 27 -12
18z"/>
<path d="M267 2637 c-71 -23 -102 -70 -77 -118 40 -73 285 -96 360 -33 55 46
35 105 -47 140 -49 21 -186 28 -236 11z m218 -38 c83 -21 98 -76 27 -101 -46
-16 -194 -16 -243 1 -44 14 -72 42 -63 64 15 41 177 62 279 36z"/>
<path d="M4430 2495 c0 -57 2 -63 23 -69 36 -10 39 -7 17 16 -12 14 -20 33
-18 48 3 24 6 25 81 28 84 3 99 -6 77 -47 -10 -19 -8 -21 19 -21 29 0 30 2 21
26 -6 14 -8 30 -4 35 3 5 34 9 70 9 63 0 64 -1 64 -27 0 -14 -7 -35 -17 -45
-15 -17 -14 -18 15 -18 l32 0 0 65 0 65 -190 -2 -190 -1 0 -62z"/>
<path d="M238 2394 c-44 -19 -49 -31 -41 -89 l6 -45 36 5 c39 5 293 25 323 25
11 0 18 7 18 19 0 18 -6 19 -72 15 -40 -3 -81 -7 -90 -9 -20 -4 -23 6 -7 22
17 17 -5 49 -42 62 -43 15 -86 13 -131 -5z m136 -30 c9 -3 16 -17 16 -30 0
-22 -4 -24 -49 -24 -27 0 -62 -3 -80 -6 -41 -9 -55 21 -22 48 23 18 101 25
135 12z"/>
<path d="M4426 2378 c-9 -12 -16 -30 -16 -38 0 -24 42 -59 84 -71 47 -13 87
-4 152 32 57 33 114 38 135 13 11 -14 10 -19 -8 -34 -24 -19 -21 -30 8 -30 13
0 20 11 25 36 9 48 -17 74 -80 81 -40 5 -57 0 -116 -31 -76 -39 -113 -45 -148
-20 -27 19 -28 40 -2 56 25 16 26 28 1 28 -11 0 -27 -10 -35 -22z"/>
<path d="M394 2130 c7 -121 26 -197 77 -317 65 -153 169 -367 175 -361 3 3 -9
34 -26 68 -80 158 -111 243 -130 357 -19 115 -56 251 -85 314 -16 33 -16 31
-11 -61z"/>
<path d="M4566 2110 c-21 -63 -46 -164 -56 -225 -11 -60 -25 -128 -33 -150
-23 -65 -138 -298 -144 -292 -6 7 26 109 72 227 30 76 63 235 52 246 -2 2 -33
-60 -67 -138 -61 -138 -64 -147 -71 -249 -8 -122 -21 -159 -96 -264 -69 -97
-168 -205 -158 -174 11 35 70 150 105 206 27 42 85 202 76 210 -5 6 -144 -210
-162 -252 -9 -22 -20 -65 -24 -96 -11 -78 -33 -120 -95 -180 -56 -54 -182
-152 -237 -183 l-33 -19 40 44 c22 24 72 78 112 119 52 54 83 97 108 150 l35
75 -107 -110 c-77 -78 -119 -131 -148 -184 -40 -75 -94 -130 -152 -159 -18 -9
-33 -19 -33 -24 0 -12 5 -11 82 28 52 26 96 39 162 49 50 7 104 18 120 24 45
18 145 93 201 151 l50 52 -49 -26 c-27 -14 -55 -26 -62 -26 -6 0 -55 -29 -108
-64 -53 -36 -120 -72 -149 -82 -28 -9 -59 -19 -67 -22 -8 -3 19 19 60 48 41
30 116 88 166 131 83 70 173 119 217 119 21 0 99 54 138 96 40 43 94 123 128
194 21 43 18 41 -66 -46 -48 -50 -111 -115 -139 -145 -28 -30 -76 -69 -108
-86 -65 -37 -64 -33 19 62 33 39 86 106 117 150 60 85 83 109 166 170 63 47
95 91 122 169 22 64 54 225 47 232 -3 3 -8 -7 -11 -22 -17 -65 -157 -331 -200
-379 l-45 -50 66 135 c84 172 137 294 162 368 22 69 44 222 39 272 -3 30 -8
20 -42 -80z"/>
<path d="M540 1893 c1 -53 32 -178 58 -239 25 -58 72 -195 72 -211 0 -2 -5 -1
-12 3 -8 5 -9 1 -5 -12 4 -10 -14 4 -38 31 -44 48 -137 217 -186 339 -33 82
-35 48 -4 -81 35 -146 66 -199 160 -268 58 -43 97 -85 175 -188 55 -72 117
-152 137 -177 l38 -44 -40 24 c-90 53 -125 82 -173 142 -64 80 -185 199 -176
173 4 -11 25 -49 47 -85 90 -149 151 -206 257 -237 80 -23 105 -38 200 -118
47 -40 118 -96 159 -124 41 -28 70 -51 64 -51 -29 0 -159 62 -216 103 -36 26
-88 56 -116 67 -28 11 -64 27 -79 36 -15 9 11 -20 57 -65 101 -98 157 -127
279 -145 64 -10 116 -25 167 -50 86 -40 98 -34 26 12 -63 41 -104 88 -142 164
-21 43 -64 95 -135 167 l-104 106 33 -72 c25 -56 55 -95 139 -184 59 -62 106
-115 104 -117 -10 -9 -185 121 -258 191 -59 57 -75 88 -88 171 -12 79 -20 98
-80 196 -66 107 -114 171 -105 140 26 -97 50 -159 77 -197 31 -46 112 -213
105 -219 -5 -5 -81 85 -150 176 -81 109 -99 155 -107 280 -8 111 -9 115 -60
225 -18 39 -41 89 -51 113 -19 45 -29 53 -29 25z"/>
<path d="M1600 775 c0 -8 -35 -86 -78 -174 -52 -107 -74 -162 -66 -165 7 -3
15 6 18 19 7 27 108 237 112 232 2 -1 -12 -63 -31 -137 -19 -74 -31 -138 -27
-142 4 -4 45 47 91 112 47 66 86 118 88 116 4 -4 -96 -228 -109 -244 -13 -15
-11 -17 20 -26 16 -6 22 -3 22 8 0 18 102 255 130 303 18 31 18 32 -1 38 -10
4 -23 4 -28 1 -5 -4 -42 -53 -83 -110 -40 -58 -74 -104 -75 -103 -1 2 13 62
31 135 32 126 33 133 16 142 -25 13 -30 13 -30 -5z"/>
<path d="M3361 781 c-10 -7 -10 -32 -1 -132 7 -68 16 -132 21 -142 9 -16 12
-16 48 2 l38 20 23 -50 c25 -51 27 -54 48 -41 10 7 7 18 -12 52 -18 31 -22 48
-15 56 13 16 -6 55 -24 48 -8 -3 -28 29 -57 92 -25 52 -47 97 -50 99 -3 2 -12
0 -19 -4z m49 -131 c16 -33 30 -64 30 -69 0 -15 -41 -34 -50 -24 -8 8 -21 153
-14 153 2 0 17 -27 34 -60z"/>
<path d="M3144 685 c-33 -51 1 -201 69 -302 51 -76 110 -84 129 -17 20 69 -48
264 -111 317 -41 34 -66 34 -87 2z m79 -37 c46 -62 107 -247 94 -282 -11 -29
-45 -18 -73 23 -52 79 -101 260 -77 284 14 14 33 6 56 -25z"/>
<path d="M1866 656 c-6 -23 -150 -284 -167 -301 -13 -13 -11 -25 4 -25 7 0 26
27 42 60 36 76 45 83 80 70 30 -11 29 -5 12 -154 -1 -11 7 -22 21 -27 21 -8
22 -6 22 44 0 29 7 106 15 172 19 160 19 172 -4 178 -14 3 -21 -2 -25 -17z
m-2 -115 c-6 -57 -8 -61 -28 -55 -32 10 -32 11 -1 69 16 29 31 52 33 50 2 -1
0 -30 -4 -64z"/>
<path d="M2967 625 c-37 -36 -23 -168 22 -209 24 -21 65 -18 69 6 2 12 -1 16
-10 13 -24 -9 -58 39 -70 98 -11 50 -10 59 4 73 15 15 18 14 36 -4 51 -51 80
-251 47 -316 -17 -32 -15 -39 8 -31 26 11 42 66 41 145 -3 154 -88 285 -147
225z"/>
<path d="M1991 507 c-13 -67 -32 -150 -41 -184 -14 -51 -15 -63 -4 -67 9 -3
14 1 14 12 0 26 53 273 57 268 3 -2 11 -49 18 -103 28 -208 27 -203 44 -203
14 0 24 31 53 168 20 92 39 175 43 185 5 12 2 17 -9 17 -10 0 -16 -9 -16 -24
0 -24 -48 -257 -54 -263 -2 -2 -11 56 -20 129 -23 181 -25 188 -44 188 -14 0
-22 -24 -41 -123z"/>
<path d="M2833 603 c-20 -13 -21 -17 -9 -36 7 -12 26 -94 42 -183 27 -155 29
-160 51 -156 18 3 21 8 14 21 -5 9 -24 95 -41 191 -17 96 -32 175 -33 176 -1
1 -12 -5 -24 -13z"/>
<path d="M2201 430 c-12 -87 -24 -173 -27 -190 -6 -26 -4 -30 15 -30 11 0 21
6 21 13 1 32 48 346 54 356 5 7 -2 11 -17 11 -24 0 -25 -4 -46 -160z"/>
<path d="M2304 572 c6 -11 -19 -346 -28 -360 -5 -9 121 -29 128 -20 2 1 6 16
10 31 7 28 6 28 -16 13 -27 -19 -78 -21 -78 -3 0 31 21 285 26 315 4 29 3 32
-21 32 -14 0 -24 -4 -21 -8z"/>
<path d="M2510 543 c0 -27 -41 -270 -55 -326 -5 -20 -3 -27 7 -27 11 0 17 17
21 63 8 88 13 97 53 97 l33 0 17 -80 c16 -73 20 -80 41 -80 15 0 22 4 17 11
-4 6 -26 91 -49 188 -37 156 -44 176 -64 179 -17 3 -21 -2 -21 -25z m39 -105
c14 -61 15 -58 -17 -58 l-29 0 10 61 c11 67 19 66 36 -3z"/>
</g>
</svg>
