<?xml version="1.0" standalone="no"?>
<!DOCTYPE svg PUBLIC "-//W3C//DTD SVG 20010904//EN"
 "http://www.w3.org/TR/2001/REC-SVG-20010904/DTD/svg10.dtd">
<svg version="1.0" xmlns="http://www.w3.org/2000/svg"
 width="3349.000000pt" height="3352.000000pt" viewBox="0 0 3349.000000 3352.000000"
 preserveAspectRatio="xMidYMid meet">

<g transform="translate(0.000000,3352.000000) scale(0.100000,-0.100000)"
fill="#000000" stroke="none">
<path d="M16470 33504 c-349 -26 -708 -82 -1047 -165 -349 -85 -697 -228
-1043 -429 -178 -104 -297 -183 -716 -477 -544 -381 -821 -554 -1174 -736 -96
-49 -236 -125 -310 -167 -362 -208 -1034 -509 -1600 -718 -74 -27 -225 -86
-335 -130 -110 -44 -239 -94 -287 -110 -127 -45 -1321 -398 -1441 -427 -120
-28 -675 -136 -1032 -200 -470 -85 -603 -118 -852 -210 -191 -71 -382 -164
-668 -326 -188 -107 -276 -164 -482 -318 -139 -103 -284 -216 -321 -252 -38
-35 -108 -99 -155 -142 -148 -133 -543 -589 -679 -784 -281 -401 -549 -979
-682 -1473 -42 -154 -75 -328 -117 -610 -100 -675 -174 -986 -421 -1755 -94
-291 -183 -572 -200 -623 -66 -211 -295 -785 -526 -1322 -88 -206 -471 -976
-565 -1137 -41 -71 -91 -159 -110 -198 -39 -76 -261 -442 -380 -625 -41 -63
-171 -248 -288 -410 -357 -494 -426 -609 -594 -980 -125 -276 -167 -388 -241
-645 -142 -496 -203 -976 -190 -1505 10 -436 40 -664 137 -1050 94 -379 217
-727 346 -983 115 -229 324 -557 553 -867 229 -311 452 -658 580 -903 630
-1211 875 -1715 1063 -2187 122 -305 413 -1170 507 -1502 178 -634 250 -948
325 -1418 106 -663 217 -1040 450 -1515 493 -1005 1363 -1847 2400 -2324 374
-172 632 -241 1325 -356 472 -79 577 -101 1000 -211 386 -101 477 -127 715
-204 99 -32 223 -71 275 -86 237 -68 789 -273 1150 -429 765 -330 912 -395
1135 -506 754 -374 1301 -706 1925 -1169 358 -266 713 -466 1040 -588 460
-170 880 -268 1355 -314 191 -18 711 -15 915 6 670 68 1157 198 1655 441 310
151 502 271 864 539 295 218 329 240 711 476 409 253 639 383 981 552 294 146
868 416 1014 476 141 59 832 329 1000 392 691 257 1483 465 2343 615 715 124
949 193 1473 432 323 147 728 413 1054 692 356 304 649 641 940 1081 287 434
410 696 556 1175 103 341 104 343 165 749 86 568 179 986 344 1536 122 409
158 517 330 990 210 576 259 696 505 1235 70 154 150 332 177 395 62 145 200
412 380 734 369 660 459 805 757 1216 199 274 272 385 432 650 212 353 299
571 423 1050 139 538 173 847 163 1465 -6 346 -19 505 -62 763 -96 563 -317
1120 -666 1673 -36 58 -164 240 -284 405 -251 344 -352 493 -492 724 -330 545
-879 1655 -1135 2295 -160 398 -348 943 -477 1375 -99 335 -216 758 -241 875
-63 294 -124 610 -165 853 -80 483 -124 671 -224 963 -96 280 -168 427 -374
764 -237 387 -451 664 -740 961 -470 483 -867 772 -1389 1011 -499 228 -718
291 -1460 418 -598 103 -743 135 -1303 292 -360 100 -640 187 -914 284 -1539
547 -2900 1236 -3876 1963 -207 154 -615 418 -762 493 -247 124 -654 270 -976
348 -394 96 -647 126 -1087 130 -179 1 -350 1 -380 -1z m905 -2824 c908 -56
1769 -177 2546 -356 2367 -545 4654 -1789 6458 -3513 705 -673 1536 -1669
2008 -2406 110 -172 438 -721 520 -870 827 -1503 1350 -3045 1592 -4698 191
-1298 219 -2338 95 -3507 -146 -1380 -496 -2759 -999 -3935 -589 -1378 -1285
-2516 -2218 -3628 -418 -498 -821 -913 -1407 -1446 -630 -574 -1631 -1281
-2490 -1758 -1731 -963 -3603 -1525 -5630 -1692 -443 -37 -649 -45 -1130 -45
-695 0 -1253 38 -1900 130 -1855 264 -3613 886 -5210 1842 -738 442 -1749
1193 -2230 1657 -74 72 -166 159 -205 195 -94 86 -689 703 -835 865 -1807
2013 -3030 4673 -3370 7330 -35 277 -115 1070 -131 1303 -20 286 3 1260 41
1767 67 881 280 1989 559 2905 324 1065 811 2155 1406 3146 334 556 558 874
1079 1529 317 399 409 506 651 758 116 120 215 225 220 234 9 14 492 478 675
648 174 162 648 553 905 746 788 593 1577 1070 2425 1467 920 431 1586 672
2495 902 768 195 1300 287 2010 350 127 11 372 34 545 51 173 17 385 34 470
39 190 10 823 4 1055 -10z"/>
<path d="M17602 30000 c-134 -18 -269 -83 -339 -163 -167 -191 -153 -477 34
-717 20 -25 122 -130 227 -235 210 -208 245 -256 266 -373 19 -107 -7 -198
-75 -267 -73 -72 -183 -104 -301 -85 -97 16 -156 44 -212 104 -61 65 -92 142
-100 256 -6 77 -9 85 -29 88 -28 4 -38 -29 -58 -203 -20 -178 -20 -248 3 -267
55 -49 193 -91 352 -108 270 -29 506 62 620 240 59 92 83 181 84 305 1 225
-79 370 -331 601 -176 162 -266 257 -299 316 -25 46 -29 63 -29 133 0 63 5 89
22 122 50 93 150 139 284 130 44 -3 96 -13 121 -25 103 -45 176 -149 187 -265
5 -53 9 -62 27 -65 28 -4 32 8 44 146 6 64 15 143 20 175 5 32 7 64 3 72 -6
17 -109 50 -216 70 -101 18 -231 25 -305 15z"/>
<path d="M14905 29899 c-81 -27 -480 -102 -848 -158 -190 -29 -237 -41 -237
-61 0 -19 28 -25 115 -22 95 3 108 -2 137 -48 22 -35 36 -100 138 -680 119
-673 140 -809 140 -905 0 -101 -11 -119 -88 -141 -66 -19 -83 -30 -75 -50 8
-20 43 -18 199 15 76 17 279 50 450 76 483 71 507 77 520 132 8 32 -3 276 -14
318 -6 20 -15 30 -28 30 -16 0 -20 -11 -29 -80 -13 -104 -36 -142 -106 -178
-110 -56 -387 -90 -442 -54 -27 18 -59 71 -70 117 -11 47 -107 602 -107 620 0
23 1 24 204 55 101 16 185 24 207 20 54 -9 86 -44 105 -114 15 -52 21 -61 41
-61 28 0 28 2 8 170 -8 69 -15 148 -15 177 0 90 -21 108 -61 52 -12 -17 -41
-40 -64 -50 -47 -21 -441 -96 -451 -86 -7 7 -124 660 -119 665 2 2 72 14 157
28 178 27 296 31 337 9 29 -15 57 -61 67 -114 9 -42 30 -59 50 -39 13 13 13
31 0 164 -9 82 -17 164 -18 183 -2 19 -7 35 -13 36 -5 1 -46 -10 -90 -26z"/>
<path d="M18987 29842 c-18 -20 -87 -166 -124 -261 -22 -58 -23 -66 -8 -80 14
-14 20 -10 70 46 64 72 101 88 178 78 57 -8 458 -92 463 -98 5 -5 -308 -1291
-346 -1424 -37 -129 -74 -201 -107 -209 -13 -4 -53 -3 -88 1 -55 6 -66 4 -71
-10 -4 -9 -2 -21 3 -26 5 -5 81 -25 169 -44 87 -19 247 -58 354 -86 223 -59
255 -63 255 -34 0 16 -16 25 -79 47 -43 15 -89 34 -101 42 -44 29 -44 96 0
301 29 137 325 1359 330 1364 6 5 331 -84 399 -109 35 -13 76 -39 103 -65 l45
-43 -3 -66 c-4 -73 10 -102 35 -76 12 12 72 213 100 331 8 37 -7 45 -98 53
-82 6 -1071 241 -1268 300 -59 18 -125 45 -146 59 -45 32 -45 32 -65 9z"/>
<path d="M13020 29509 c-57 -37 -103 -54 -687 -265 -538 -194 -634 -225 -712
-228 -36 -1 -57 -7 -64 -17 -13 -21 36 -321 57 -354 22 -33 46 -22 46 21 0 78
20 132 63 169 49 42 489 222 496 202 2 -7 107 -298 233 -647 235 -649 298
-843 298 -909 0 -45 -19 -65 -93 -101 -29 -14 -52 -32 -52 -40 0 -30 55 -20
201 38 82 33 221 83 309 112 215 71 255 88 255 111 0 25 -16 24 -118 -2 -79
-21 -85 -21 -118 -5 -61 28 -78 71 -415 1003 -109 303 -199 554 -199 557 0 2
84 32 187 66 289 96 375 94 428 -9 24 -49 54 -67 70 -41 7 11 -90 314 -111
348 -18 27 -19 27 -74 -9z"/>
<path d="M21740 29015 c-14 -7 -325 -316 -691 -687 -483 -488 -678 -679 -711
-695 -56 -28 -116 -29 -191 -4 -50 18 -57 18 -69 4 -20 -24 14 -44 185 -112
84 -33 205 -84 270 -115 119 -55 147 -60 147 -26 0 13 -18 27 -55 44 -118 54
-102 94 135 344 94 100 173 182 175 182 8 0 521 -222 527 -228 11 -11 -21
-604 -34 -619 -6 -8 -19 -11 -30 -7 -21 6 -51 -13 -42 -27 17 -28 554 -262
591 -257 44 5 37 25 -16 52 -77 39 -117 80 -138 139 -16 47 -18 89 -17 412 0
198 9 614 19 924 18 589 17 667 -6 682 -18 11 -19 11 -49 -6z m-243 -800 c-11
-187 -21 -341 -22 -343 -5 -5 -409 169 -422 181 -9 9 45 72 224 260 129 136
236 247 238 245 1 -2 -7 -156 -18 -343z"/>
<path d="M10904 28657 c-84 -51 -190 -112 -235 -137 -62 -33 -84 -50 -84 -65
0 -18 7 -20 55 -20 l55 0 24 -48 c22 -45 24 -63 32 -305 4 -141 10 -329 11
-418 l4 -161 -86 50 c-580 342 -645 381 -692 425 -35 32 -35 58 -2 93 27 28
25 49 -3 49 -9 0 -82 -40 -162 -89 -80 -49 -195 -115 -255 -146 -127 -68 -160
-94 -147 -114 8 -13 17 -12 61 2 123 40 214 11 552 -173 638 -348 612 -326
797 -652 179 -316 189 -350 122 -411 -22 -19 -49 -40 -60 -47 -28 -15 -28 -50
0 -50 12 0 103 49 203 109 99 60 245 144 324 187 145 79 173 102 148 123 -10
9 -33 2 -97 -29 -94 -45 -98 -46 -145 -24 -42 20 -103 110 -249 364 -161 280
-149 229 -153 663 -4 392 7 605 35 702 14 50 27 70 80 122 35 35 63 70 63 78
0 31 -48 11 -196 -78z"/>
<path d="M22919 28343 c-121 -125 -159 -171 -159 -193 0 -34 24 -33 79 4 103
70 134 62 423 -112 l187 -113 -78 -122 c-43 -67 -198 -311 -346 -542 -330
-517 -396 -616 -461 -682 -59 -62 -80 -66 -154 -28 -59 30 -80 32 -80 5 0 -22
37 -49 185 -135 55 -32 168 -104 250 -160 187 -127 224 -148 242 -133 7 6 13
14 13 19 0 4 -33 33 -74 63 -42 32 -79 69 -86 86 -26 62 -3 103 503 897 194
304 356 553 360 553 19 0 316 -209 364 -257 61 -62 84 -118 65 -164 -7 -16
-17 -42 -24 -59 -14 -34 -1 -57 26 -47 20 8 206 287 206 310 0 12 -16 24 -47
37 -82 34 -136 66 -563 338 -529 338 -614 395 -676 459 -28 29 -58 53 -65 53
-8 0 -48 -35 -90 -77z"/>
<path d="M8820 27363 c-33 -45 -430 -380 -664 -563 -192 -150 -219 -179 -180
-194 9 -4 37 10 71 34 78 56 113 66 158 44 44 -20 97 -81 536 -614 475 -576
524 -641 536 -713 5 -31 0 -40 -46 -88 -56 -59 -63 -79 -27 -79 17 0 66 36
156 115 73 63 186 156 253 207 241 186 467 370 477 388 14 27 12 56 -6 93 -33
68 -159 247 -177 253 -34 11 -36 -17 -5 -83 33 -70 40 -142 18 -184 -21 -38
-109 -127 -189 -191 -164 -131 -224 -131 -339 2 -32 38 -347 422 -374 457 -12
15 266 235 327 258 58 23 86 15 146 -42 48 -45 79 -52 79 -18 0 8 -31 57 -69
107 -37 51 -89 126 -115 166 -26 39 -50 72 -54 72 -18 0 -32 -26 -32 -57 0
-44 -51 -99 -234 -251 -100 -84 -142 -113 -152 -106 -11 8 -405 482 -420 505
-6 10 10 25 163 145 133 105 218 149 264 139 18 -4 54 -28 80 -52 49 -46 79
-52 79 -15 0 9 -31 60 -68 112 -37 52 -78 113 -91 135 -23 38 -48 65 -60 65
-3 0 -22 -22 -41 -47z"/>
<path d="M16140 27260 c-406 -25 -834 -73 -1204 -136 -3027 -513 -5688 -2340
-7268 -4989 -152 -254 -241 -420 -392 -725 -538 -1086 -875 -2222 -1016 -3429
-83 -709 -92 -1490 -25 -2211 164 -1758 765 -3433 1763 -4910 920 -1363 2195
-2525 3647 -3325 177 -97 637 -324 820 -405 536 -236 1193 -458 1755 -594
1089 -263 2244 -353 3355 -260 1783 148 3472 736 4955 1725 604 403 1102 811
1610 1319 1698 1698 2760 3908 3019 6280 48 434 55 592 56 1145 0 524 -4 633
-41 1020 -254 2695 -1554 5199 -3622 6974 -522 448 -1111 860 -1727 1207 -194
109 -644 334 -855 426 -1127 497 -2226 772 -3490 874 -228 18 -1110 27 -1340
14z m880 -330 c1337 -46 2572 -323 3765 -845 1434 -627 2725 -1596 3731 -2801
1339 -1603 2145 -3549 2329 -5619 28 -316 36 -529 36 -905 0 -397 -9 -608 -42
-965 -212 -2310 -1224 -4489 -2864 -6164 -1510 -1542 -3474 -2565 -5595 -2916
-627 -103 -1151 -141 -1825 -132 -412 6 -642 19 -985 57 -2295 256 -4421 1280
-6061 2919 -1661 1661 -2695 3834 -2928 6151 -41 407 -46 515 -46 1055 1 553
9 725 56 1135 224 1984 1013 3832 2289 5365 221 266 358 414 644 700 300 299
533 508 837 751 1115 890 2416 1541 3783 1894 818 211 1592 312 2511 328 44 1
208 -3 365 -8z"/>
<path d="M16513 26553 c-46 -2 -83 -8 -83 -13 0 -6 16 -10 35 -10 35 0 74 -27
76 -52 0 -7 8 -128 18 -268 10 -140 16 -257 15 -259 -3 -4 -264 241 -485 457
-80 78 -151 142 -156 142 -6 0 -13 -6 -15 -12 -2 -7 1 -186 6 -397 l9 -384
-23 -19 c-12 -10 -33 -18 -46 -18 -13 0 -24 -5 -24 -11 0 -13 290 -2 304 12 6
5 -3 9 -23 9 -42 0 -70 15 -81 45 -9 23 -40 404 -40 488 l0 40 143 -139 c218
-213 475 -444 493 -444 15 0 16 32 9 394 l-7 393 23 17 c13 9 31 16 41 16 10
0 18 5 18 10 0 10 -24 10 -207 3z"/>
<path d="M17120 26546 c-234 -50 -377 -291 -315 -529 52 -201 212 -317 436
-317 234 0 404 147 441 382 21 139 -26 287 -116 364 -109 93 -290 134 -446
100z m204 -66 c171 -65 248 -300 175 -537 -48 -155 -187 -221 -343 -162 -70
26 -145 105 -177 187 -31 77 -34 269 -6 349 55 156 194 221 351 163z"/>
<path d="M15625 26503 c-11 -3 -58 -11 -104 -17 -56 -7 -86 -16 -89 -25 -4
-11 3 -13 33 -8 68 11 75 -4 123 -284 23 -135 42 -253 42 -263 0 -13 -21 -1
-82 46 -46 36 -159 122 -253 193 -93 71 -211 162 -262 202 -51 40 -97 73 -102
73 -17 0 -14 -28 35 -392 25 -187 44 -358 42 -381 -3 -38 -6 -42 -38 -51 -19
-5 -37 -13 -40 -17 -8 -11 -84 -20 -96 -12 -6 5 -16 18 -23 30 -17 32 -151
627 -151 669 0 31 5 37 35 50 39 16 48 39 13 32 -81 -17 -275 -60 -285 -64
-24 -7 -13 -25 15 -24 50 4 59 0 71 -26 16 -36 140 -587 148 -655 l6 -57 -37
-13 c-75 -27 -26 -40 60 -15 27 8 87 22 134 31 47 10 96 23 110 30 22 11 86
22 244 43 54 8 80 35 30 32 -52 -4 -63 0 -79 23 -12 19 -108 517 -100 525 1 1
49 -35 106 -81 203 -163 569 -428 587 -425 21 4 24 -31 -33 408 -50 386 -50
395 5 406 16 4 30 10 30 15 0 9 -61 10 -95 2z"/>
<path d="M17670 26501 c0 -4 20 -16 45 -26 25 -9 50 -26 56 -37 6 -11 55 -198
109 -415 53 -217 103 -400 109 -406 8 -8 16 -6 30 8 16 17 165 250 374 585 71
114 106 150 147 150 52 0 32 18 -27 25 -32 4 -76 11 -98 16 -55 12 -118 11
-110 -1 3 -5 14 -10 24 -10 32 0 46 -26 32 -58 -12 -26 -263 -459 -286 -494
-9 -14 -24 40 -74 277 -35 161 -61 301 -58 309 4 10 18 16 37 16 32 0 41 16
13 24 -10 2 -43 7 -73 11 -30 3 -90 13 -134 21 -90 16 -116 17 -116 5z"/>
<path d="M18744 26338 c-12 -13 -114 -160 -228 -328 -115 -168 -222 -320 -239
-337 -27 -28 -38 -33 -79 -33 -26 0 -48 -4 -48 -9 0 -11 13 -15 95 -31 33 -6
82 -18 109 -26 27 -8 56 -14 64 -14 22 0 8 24 -19 30 -43 10 -35 46 30 148 33
50 65 92 71 92 16 0 233 -49 238 -54 2 -2 12 -60 22 -128 17 -113 17 -124 2
-136 -25 -19 -6 -28 128 -58 69 -15 130 -33 135 -39 6 -7 46 -22 91 -34 45
-12 114 -32 154 -46 83 -28 90 -29 90 -15 0 6 -21 20 -46 31 l-47 19 6 48 c6
52 174 632 187 646 12 12 166 -42 200 -71 23 -19 30 -33 30 -59 0 -52 16 -40
39 29 33 102 34 98 -34 112 -102 22 -538 155 -577 178 -21 11 -39 19 -41 16
-17 -20 -67 -120 -67 -133 0 -22 7 -20 42 9 16 14 37 25 45 25 16 0 215 -50
221 -55 7 -6 -179 -617 -199 -657 -19 -37 -23 -40 -52 -34 -17 3 -33 10 -37
15 -3 5 -22 16 -42 24 -22 9 -43 28 -53 48 -10 19 -44 198 -82 428 -36 218
-71 402 -77 409 -10 10 -16 8 -32 -10z m-35 -323 c7 -55 15 -116 18 -136 l5
-36 -98 22 c-55 12 -98 26 -96 31 10 28 148 232 153 226 4 -4 12 -52 18 -107z"/>
<path d="M13815 26118 c-11 -7 -117 -44 -235 -84 -118 -39 -213 -76 -210 -80
5 -10 16 -10 55 0 17 4 30 1 43 -12 18 -18 187 -498 219 -625 l18 -69 -23 -18
c-12 -10 -28 -20 -35 -23 -6 -2 -8 -8 -4 -13 5 -5 49 6 100 23 51 18 153 51
227 74 74 22 141 46 148 52 10 8 12 23 8 52 -17 107 -46 156 -46 76 0 -55 -28
-85 -102 -110 -81 -28 -122 -27 -142 1 -20 27 -99 264 -94 279 4 11 140 59
170 59 9 0 28 -14 42 -32 14 -18 28 -30 31 -26 7 6 -29 156 -40 166 -4 4 -12
0 -18 -9 -7 -9 -23 -21 -36 -28 -25 -14 -159 -61 -172 -61 -7 0 -94 244 -94
265 0 13 131 54 175 55 28 0 41 -7 62 -32 l27 -33 1 26 c0 14 -4 39 -9 55 -5
16 -12 41 -15 57 -7 29 -20 33 -51 15z"/>
<path d="M19790 26021 c0 -5 14 -14 30 -21 52 -21 49 -44 -30 -263 -121 -337
-170 -456 -190 -467 -12 -6 -28 -7 -43 -1 -24 9 -37 6 -37 -10 0 -4 37 -20 83
-35 45 -15 115 -40 155 -55 40 -16 77 -29 82 -29 23 0 7 21 -30 40 -23 12 -43
27 -46 35 -10 24 219 658 248 687 12 12 26 15 52 11 61 -10 41 14 -31 38 -38
12 -101 35 -141 50 -75 30 -102 35 -102 20z"/>
<path d="M13107 25865 c-280 -78 -425 -191 -471 -370 -20 -74 -20 -125 -1
-199 35 -135 115 -240 222 -292 49 -24 73 -29 158 -32 71 -3 119 1 165 13 139
35 340 157 340 206 0 10 -25 77 -55 147 -30 71 -55 137 -55 147 0 11 12 29 28
41 49 39 16 36 -84 -9 -55 -24 -120 -52 -146 -62 -63 -23 -62 -39 1 -30 45 6
51 4 64 -17 29 -44 108 -239 105 -256 -2 -10 -33 -32 -73 -52 -65 -33 -76 -35
-165 -35 -89 0 -99 2 -158 34 -182 99 -284 350 -204 502 84 161 365 235 467
123 56 -61 59 -43 10 76 -19 47 -40 86 -47 87 -7 1 -52 -9 -101 -22z"/>
<path d="M20271 25764 c-226 -79 -348 -349 -261 -577 44 -115 178 -223 326
-262 244 -63 479 89 540 351 20 89 12 160 -27 242 -53 110 -175 204 -318 246
-69 20 -202 20 -260 0z m273 -65 c109 -40 186 -159 186 -288 0 -155 -106 -356
-221 -417 -50 -27 -152 -25 -206 4 -179 94 -223 302 -112 524 86 173 205 233
353 177z"/>
<path d="M14181 25494 c-12 -15 -21 -35 -21 -46 0 -24 44 -68 68 -68 32 0 72
38 72 69 0 69 -77 98 -119 45z"/>
<path d="M21000 25168 c-253 -422 -235 -399 -295 -374 -53 23 -51 0 2 -30 27
-15 85 -50 131 -77 87 -51 122 -56 63 -8 -30 25 -33 32 -28 64 7 42 238 471
247 460 4 -5 15 -46 25 -93 22 -106 171 -677 185 -707 5 -13 16 -23 23 -23 7
0 99 143 205 318 105 175 200 327 212 337 18 16 25 17 54 7 39 -15 46 -15 46
-2 0 5 -15 17 -32 26 -18 9 -75 41 -126 71 -51 31 -96 53 -99 49 -4 -3 10 -22
31 -41 30 -27 36 -39 31 -57 -9 -30 -256 -480 -261 -475 -4 4 -201 788 -206
819 -8 59 -35 25 -208 -264z"/>
<path d="M12177 25400 c-56 -14 -166 -67 -302 -146 -66 -38 -146 -83 -178 -99
-31 -17 -55 -34 -53 -40 4 -11 8 -11 54 7 23 9 37 10 49 2 31 -19 353 -604
353 -639 0 -11 -12 -29 -27 -41 -50 -40 -15 -38 54 3 37 22 120 65 183 96 143
68 228 131 284 211 57 80 76 138 76 235 0 167 -88 313 -232 387 -43 23 -69 28
-138 30 -47 2 -102 -1 -123 -6z m155 -133 c116 -57 219 -216 226 -350 4 -57 0
-75 -22 -122 -32 -64 -96 -123 -179 -165 -73 -36 -116 -39 -144 -7 -19 20
-249 420 -301 523 -20 39 -20 43 -4 57 22 20 117 67 167 84 66 22 192 12 257
-20z"/>
<path d="M11495 25029 c-16 -16 -110 -82 -207 -147 -98 -64 -178 -123 -178
-130 0 -8 3 -12 8 -10 4 2 25 12 46 22 l39 18 28 -29 c32 -33 295 -417 351
-513 21 -36 38 -71 38 -79 0 -8 -12 -28 -27 -43 -45 -47 -5 -33 84 30 45 31
136 92 203 134 90 58 120 82 120 98 0 11 -14 47 -30 80 -33 66 -57 81 -45 28
15 -62 9 -81 -35 -119 -64 -55 -127 -84 -154 -71 -27 12 -190 248 -181 262 11
18 141 90 162 90 11 0 28 -9 38 -20 10 -11 25 -20 32 -20 17 0 19 -5 -32 87
-39 71 -65 92 -65 53 0 -21 -164 -145 -180 -135 -7 4 -132 185 -154 222 -9 16
119 100 164 110 25 5 37 0 61 -23 22 -21 29 -24 29 -11 0 19 -69 147 -78 146
-4 -1 -20 -14 -37 -30z"/>
<path d="M22285 24597 c-23 -13 -52 -42 -70 -71 -43 -71 -46 -155 -9 -320 25
-111 26 -129 15 -167 -7 -23 -26 -55 -41 -71 -77 -77 -240 7 -240 124 0 21 9
57 20 79 19 37 19 66 1 54 -5 -2 -35 -37 -67 -76 l-58 -71 19 -35 c25 -46 106
-118 170 -151 73 -37 163 -37 228 1 90 53 136 152 123 265 -4 31 -18 101 -32
156 -32 120 -28 166 14 209 94 93 261 -54 198 -175 -13 -25 -12 -38 4 -38 3 0
30 30 59 66 l53 65 -27 35 c-32 42 -118 108 -168 129 -55 23 -144 19 -192 -8z"/>
<path d="M10814 24533 c-39 -32 -97 -76 -127 -98 -31 -22 -57 -46 -57 -52 0
-17 6 -16 35 3 53 35 67 24 243 -201 269 -344 289 -378 242 -407 -19 -12 -28
-38 -12 -38 4 0 30 19 57 41 28 23 119 93 203 155 84 63 156 122 159 131 10
26 -68 160 -87 148 -4 -3 -2 -23 6 -45 9 -26 11 -47 5 -63 -12 -31 -95 -104
-148 -130 l-43 -21 -27 21 c-31 23 -350 425 -389 491 -25 40 -25 44 -10 67 9
14 20 25 25 25 5 0 11 7 15 15 11 29 -20 14 -90 -42z"/>
<path d="M10516 24323 c-46 -43 -84 -84 -85 -90 -1 -17 5 -16 34 3 21 14 28
14 41 3 13 -11 265 -499 257 -499 -2 0 -132 58 -290 129 -158 72 -290 128
-295 125 -4 -3 -8 -11 -8 -18 0 -7 50 -132 111 -277 146 -348 133 -312 106
-298 -68 35 -438 254 -463 274 -28 22 -28 24 -11 42 20 22 22 33 6 33 -16 0
-209 -183 -209 -199 0 -11 5 -10 25 3 13 9 34 16 45 16 12 0 184 -88 383 -195
199 -107 366 -194 372 -192 20 8 2 67 -104 332 -60 149 -107 271 -106 272 1 2
125 -53 276 -121 151 -68 283 -126 294 -128 11 -2 21 3 22 12 2 9 -55 143
-127 298 -136 297 -210 465 -210 480 0 5 9 21 20 35 13 16 16 28 10 32 -6 3
-48 -29 -94 -72z"/>
<path d="M21515 24365 c-31 -30 -32 -65 -2 -93 30 -28 68 -28 95 1 28 30 28
68 -1 95 -30 29 -62 28 -92 -3z"/>
<path d="M22750 24362 c0 -5 11 -19 25 -32 48 -46 42 -57 -198 -330 -123 -140
-235 -261 -249 -269 -22 -11 -29 -11 -51 4 -15 9 -32 15 -38 13 -7 -2 26 -38
73 -79 47 -41 131 -116 187 -166 55 -51 109 -93 120 -93 27 0 127 93 117 108
-5 9 -14 7 -33 -8 -45 -35 -82 -26 -161 38 -57 46 -77 84 -61 115 13 24 188
227 197 227 12 0 132 -113 137 -130 4 -11 -1 -33 -11 -50 -31 -52 -6 -45 60
16 58 54 76 83 47 76 -20 -4 -63 25 -129 85 l-63 58 96 108 96 108 57 -52 c31
-28 66 -65 76 -81 19 -29 19 -31 1 -64 -10 -19 -15 -37 -12 -40 7 -7 122 94
122 107 0 4 -18 21 -40 37 -22 16 -109 91 -193 166 -144 127 -172 148 -172
128z"/>
<path d="M23245 23941 c-3 -6 5 -25 19 -42 14 -17 26 -38 26 -47 1 -20 -469
-486 -512 -508 -29 -15 -32 -15 -59 5 -30 23 -39 25 -39 13 0 -17 229 -244
240 -237 7 4 2 17 -15 37 -14 16 -25 39 -25 50 0 13 38 59 97 120 l97 98 40
-39 40 -40 -23 -136 c-30 -176 -31 -262 -3 -307 26 -42 139 -154 148 -146 3 4
-6 27 -21 52 -24 40 -27 57 -27 127 1 44 9 145 18 225 l17 144 71 0 c39 0 87
5 107 10 46 13 118 75 135 117 21 49 17 119 -8 171 -28 55 -313 349 -323 333z
m172 -243 c42 -45 53 -70 53 -118 0 -99 -109 -210 -207 -210 -41 0 -83 30
-118 84 l-18 27 124 125 c68 68 126 124 129 124 4 0 20 -15 37 -32z"/>
<path d="M23705 23453 c16 -28 23 -54 19 -67 -3 -12 -91 -187 -196 -390 -134
-260 -187 -371 -179 -379 14 -14 23 -11 455 117 198 58 374 106 392 106 26 0
36 -7 53 -34 33 -53 28 -69 -41 -124 -126 -99 -474 -352 -506 -368 -33 -16
-35 -15 -63 12 -41 40 -48 21 -11 -29 18 -23 64 -86 103 -139 63 -88 89 -114
89 -90 0 4 -10 26 -22 49 -18 33 -20 47 -12 60 15 26 544 423 572 430 17 4 31
-2 52 -22 57 -55 39 -3 -34 92 -40 54 -82 112 -92 129 -27 46 -163 204 -175
204 -6 0 -9 -3 -7 -7 2 -5 10 -20 18 -36 8 -17 10 -31 4 -37 -10 -10 -575
-202 -580 -197 -5 5 274 499 293 518 19 20 19 20 47 -2 33 -26 46 -17 20 15
-182 224 -253 291 -199 189z"/>
<path d="M16920 21723 l0 -1719 178 -17 c413 -40 768 -141 1137 -322 493 -243
891 -579 1219 -1028 47 -65 90 -125 94 -133 6 -11 327 170 1485 838 812 469
1478 857 1479 861 2 6 -4473 2598 -5539 3208 l-53 30 0 -1718z m1840 -226 c23
-11 25 -19 28 -89 l3 -76 47 -12 c26 -6 62 -21 79 -32 l33 -20 67 56 c37 31
72 56 77 56 19 0 196 -187 196 -207 0 -11 -23 -51 -50 -90 l-50 -71 287 -4
c204 -2 294 -7 309 -15 17 -10 44 -59 44 -79 0 -2 -238 -4 -530 -4 l-530 0 0
-320 0 -320 360 0 360 0 0 -84 0 -83 -31 -7 c-17 -3 -88 -6 -158 -6 -69 0
-217 -3 -328 -7 l-203 -6 0 -87 c0 -53 -5 -91 -12 -98 -8 -8 -56 -12 -148 -12
-92 0 -140 4 -148 12 -7 7 -12 43 -12 90 l0 79 -63 28 c-106 48 -100 48 -171
-8 -35 -28 -72 -51 -82 -51 -23 0 -204 178 -204 201 0 9 23 46 50 82 28 36 50
70 50 76 0 5 -7 22 -15 38 -8 15 -20 47 -25 70 -10 41 -11 42 -63 47 -28 3
-68 7 -87 9 l-35 2 0 145 0 145 84 5 84 5 17 50 c10 28 27 69 38 92 l21 41
-59 65 c-33 36 -60 69 -60 74 0 15 196 203 211 203 8 -1 43 -27 79 -60 l65
-59 50 29 c27 15 69 34 93 41 l42 12 0 77 c0 42 3 80 7 83 12 13 257 7 283 -6z
m1220 -677 c19 -19 20 -33 20 -505 l0 -486 -25 -24 c-24 -24 -27 -25 -185 -25
l-162 0 -29 29 -29 29 0 457 c0 473 0 475 43 523 20 21 27 22 184 22 150 0
165 -2 183 -20z m-600 -838 c4 -35 11 -46 38 -62 22 -14 32 -27 32 -45 l0 -25
-195 0 -195 0 0 30 c0 25 6 33 35 47 31 15 35 21 35 53 0 20 3 40 7 44 4 3 59
5 122 4 l116 -3 5 -43z"/>
<path d="M18529 21090 c-141 -18 -290 -166 -318 -317 -13 -66 4 -177 38 -248
63 -136 214 -235 358 -235 l68 0 -3 325 -3 326 30 30 c27 27 35 29 101 29 39
0 69 3 66 8 -2 4 -37 24 -78 44 -80 40 -156 51 -259 38z"/>
<path d="M19214 20205 c-8 -21 2 -45 19 -45 8 0 20 7 27 15 10 12 10 18 0 30
-7 8 -19 15 -27 15 -7 0 -16 -7 -19 -15z"/>
<path d="M19663 20725 c-11 -30 12 -36 128 -33 106 3 114 4 114 23 0 19 -8 20
-118 23 -100 2 -118 0 -124 -13z"/>
<path d="M19660 20550 c0 -19 7 -20 125 -20 118 0 125 1 125 20 0 19 -7 20
-125 20 -118 0 -125 -1 -125 -20z"/>
<path d="M19837 20063 c-13 -12 -7 -41 10 -47 9 -4 23 0 31 8 13 12 13 18 2
30 -13 17 -32 21 -43 9z"/>
<path d="M13814 21826 c-1525 -881 -2773 -1605 -2774 -1610 -2 -12 2972 -1728
2980 -1719 4 5 36 51 72 103 418 606 1065 1069 1781 1274 170 49 395 93 569
111 81 8 150 15 153 15 8 0 6 3418 -2 3423 -5 2 -1255 -717 -2779 -1597z m441
-143 c-14 -21 -25 -45 -25 -54 0 -22 46 -62 154 -135 98 -67 104 -78 89 -168
-6 -34 -9 -63 -7 -65 6 -7 35 22 50 51 31 60 74 17 74 -74 0 -32 -7 -91 -17
-133 l-16 -75 -276 2 -276 3 -22 45 c-17 32 -23 62 -23 108 0 74 16 110 65
148 l36 27 -7 109 -7 108 41 39 c22 21 73 52 113 69 41 17 75 32 77 32 1 0 -9
-17 -23 -37z m293 -701 c-7 -10 -31 -39 -53 -65 l-39 -47 -171 0 c-93 0 -175
4 -180 8 -6 4 -35 33 -64 65 l-54 57 287 0 c275 0 287 -1 274 -18z m-103 -163
c5 -23 2 -38 -12 -58 -20 -25 -23 -26 -149 -29 -122 -3 -130 -2 -146 19 -10
12 -18 38 -18 60 l0 39 159 0 159 0 7 -31z m-420 -122 c84 -24 113 -43 119
-80 3 -17 10 -162 16 -322 6 -159 13 -322 16 -362 l6 -72 -54 29 c-85 46 -168
63 -275 58 -51 -3 -93 -1 -93 3 0 5 -25 178 -55 384 -30 207 -55 379 -55 382
0 11 326 -6 375 -20z m345 -9 c-3 -174 -39 -968 -44 -976 -9 -14 -72 -16 -81
-2 -5 8 -64 913 -65 988 0 21 3 22 95 22 l95 0 0 -32z m514 0 c-3 -18 -29
-192 -57 -387 l-52 -353 -120 -2 c-126 -2 -201 -21 -267 -68 -27 -18 -28 -18
-28 -1 0 10 7 185 16 388 13 297 19 373 31 387 36 41 165 65 355 67 l127 1 -5
-32z m-1266 -73 c2 -2 28 -165 59 -363 l57 -360 130 -4 c142 -5 219 -26 274
-73 l27 -24 -75 21 c-104 28 -255 34 -349 14 -41 -9 -75 -15 -76 -13 -3 4
-145 791 -145 803 0 8 16 10 48 6 26 -2 48 -6 50 -7z m1402 8 c0 -19 -147
-803 -151 -807 -2 -2 -38 3 -79 11 -95 19 -249 12 -345 -16 -38 -11 -71 -18
-73 -17 -1 2 15 15 36 29 69 45 128 60 267 66 l129 6 56 360 56 360 45 6 c24
3 47 7 52 7 4 1 7 -1 7 -5z"/>
<path d="M9619 23358 c-159 -56 -300 -222 -331 -387 -49 -261 194 -520 465
-498 193 16 377 199 409 404 46 297 -269 577 -543 481z m196 -157 c82 -41 200
-150 239 -221 57 -105 39 -219 -46 -296 -147 -132 -362 -101 -540 77 -56 56
-108 157 -108 210 0 64 30 130 85 185 66 67 116 84 222 81 68 -3 92 -9 148
-36z"/>
<path d="M9035 22732 c-16 -26 -51 -77 -77 -113 -26 -37 -48 -72 -48 -78 0
-20 16 -12 38 19 38 51 59 44 288 -106 115 -75 215 -142 223 -149 11 -11 6
-15 -35 -20 -27 -4 -150 -25 -274 -47 -124 -21 -294 -50 -379 -63 -85 -13
-158 -28 -163 -33 -12 -12 12 -31 312 -244 151 -108 286 -205 300 -217 l25
-21 -25 -20 c-42 -33 -234 -91 -492 -148 -80 -18 -88 -18 -92 -3 -96 317 -116
435 -87 490 9 16 10 26 3 33 -7 7 -20 -9 -41 -49 -16 -33 -46 -86 -65 -119
-20 -32 -36 -63 -36 -67 0 -5 13 -6 29 -2 26 6 30 3 49 -42 21 -49 114 -345
109 -349 -4 -4 -231 127 -250 144 -15 13 -17 25 -12 62 6 40 5 43 -9 30 -8 -8
-37 -55 -64 -105 -28 -49 -60 -109 -73 -132 -23 -40 -18 -78 5 -39 19 33 45
56 64 56 19 0 492 -259 582 -319 56 -37 62 -50 46 -100 -6 -17 -5 -22 5 -19 8
2 34 42 60 89 25 46 60 109 77 141 37 64 30 84 -11 32 -42 -52 -45 -51 -261
69 l-108 60 191 38 c199 40 298 69 337 97 13 9 47 53 75 97 29 44 74 110 100
146 47 64 58 89 41 89 -5 0 -18 -13 -30 -30 -26 -35 -48 -37 -101 -10 -45 23
-427 270 -417 270 57 0 827 139 844 152 6 6 12 14 12 18 0 3 -138 105 -306
225 -168 120 -313 229 -321 242 -14 21 -14 28 -2 51 7 15 15 30 17 35 2 4 -2
7 -10 7 -7 0 -26 -21 -43 -48z"/>
<path d="M24296 22350 c-113 -29 -247 -136 -292 -234 -72 -158 -48 -319 77
-506 61 -90 118 -150 145 -150 30 0 164 62 164 76 0 17 -5 17 -50 4 -54 -15
-107 4 -161 59 -183 189 -114 472 145 600 81 39 163 50 232 31 99 -28 211
-174 222 -290 6 -67 -2 -94 -44 -135 -55 -55 -20 -53 76 5 46 28 85 52 87 54
9 8 -98 220 -140 279 -99 138 -209 206 -345 213 -42 2 -94 -1 -116 -6z"/>
<path d="M24945 21778 c20 -63 18 -85 -12 -105 -61 -43 -570 -313 -602 -319
-30 -6 -37 -3 -57 22 -26 32 -46 25 -24 -9 7 -12 58 -107 113 -212 54 -104
105 -195 114 -202 16 -13 44 -7 117 26 57 25 53 40 -9 33 -56 -6 -83 15 -126
100 -35 69 -36 98 -6 125 32 29 248 144 259 137 14 -9 78 -142 78 -164 0 -11
-11 -30 -25 -42 -25 -22 -32 -38 -16 -38 5 0 43 16 85 35 l76 35 -37 38 c-21
21 -54 69 -73 106 -34 65 -35 67 -15 79 11 7 68 38 127 70 l106 57 31 -53 c37
-64 59 -126 54 -149 -2 -9 -16 -24 -30 -33 -48 -32 -9 -36 60 -7 82 35 84 37
65 59 -18 20 -144 246 -202 361 -20 39 -41 72 -47 72 -7 0 -9 -8 -4 -22z"/>
<path d="M8444 20222 c-62 -46 -172 -168 -229 -256 -144 -221 -215 -441 -215
-660 0 -115 14 -184 70 -344 22 -62 40 -128 40 -145 1 -52 -104 -1057 -110
-1057 -3 0 -5 116 -5 258 0 285 -9 348 -76 508 -91 219 -327 460 -563 578 -96
47 -180 75 -193 63 -4 -4 -7 -107 -7 -230 0 -171 4 -245 18 -321 67 -368 249
-614 586 -791 210 -111 216 -120 245 -395 29 -285 48 -1010 26 -1010 -5 0 -23
16 -40 35 -31 35 -31 37 -31 144 0 290 -113 582 -305 789 -120 130 -351 277
-542 345 -59 22 -212 57 -244 57 -14 0 -11 -146 6 -238 60 -345 196 -624 386
-796 129 -118 336 -225 543 -282 119 -33 152 -60 208 -174 46 -91 63 -173 128
-610 31 -204 62 -377 86 -465 35 -133 49 -263 32 -281 -10 -9 -46 23 -63 56
-7 14 -16 54 -19 90 -10 85 -56 226 -106 325 -91 177 -219 319 -389 433 -225
151 -441 220 -738 238 -93 6 -113 4 -113 -7 0 -35 55 -213 95 -308 143 -339
342 -574 590 -698 134 -68 291 -112 491 -138 88 -11 129 -22 166 -42 121 -66
199 -211 299 -555 49 -172 100 -302 225 -580 104 -230 174 -395 174 -410 0
-13 -38 0 -72 24 -20 14 -33 40 -53 105 -15 48 -46 126 -70 173 -167 329 -443
535 -825 611 -111 22 -367 35 -492 25 -105 -9 -106 -10 -54 -128 75 -173 195
-348 340 -496 258 -265 470 -342 937 -340 186 1 220 -11 320 -111 86 -87 173
-214 312 -456 69 -119 161 -255 309 -455 234 -317 304 -417 295 -426 -10 -10
-73 16 -94 39 -11 12 -37 55 -58 94 -132 255 -434 450 -827 535 -134 28 -425
32 -529 6 -99 -25 -171 -55 -207 -85 l-33 -28 42 -60 c103 -149 302 -338 474
-454 169 -113 347 -175 536 -188 111 -7 208 5 389 49 166 40 246 41 320 3 120
-61 219 -146 445 -386 104 -110 250 -245 475 -439 179 -155 327 -288 329 -297
2 -13 -4 -15 -40 -10 -45 6 -65 22 -131 110 -43 55 -193 163 -304 218 -116 57
-276 101 -434 120 -246 28 -547 -19 -740 -116 -60 -30 -170 -114 -170 -129 0
-19 108 -119 194 -180 238 -170 512 -285 724 -305 189 -17 336 10 586 110 174
70 241 89 311 89 97 -1 247 -70 428 -199 285 -203 1022 -639 1212 -717 58 -24
75 -35 62 -40 -36 -13 -108 3 -151 35 -232 175 -411 247 -669 273 -364 36
-866 -135 -1092 -372 l-59 -63 39 -34 c101 -88 505 -254 699 -288 114 -19 311
-19 416 1 173 32 381 126 575 257 165 112 160 110 240 115 135 8 324 -44 654
-183 247 -104 566 -216 786 -276 245 -68 366 -126 273 -131 -67 -3 -102 4
-152 32 -72 41 -246 96 -345 111 -106 15 -359 6 -461 -16 -278 -61 -542 -199
-724 -380 -83 -83 -190 -228 -183 -249 5 -16 236 -91 356 -116 330 -67 546
-65 771 6 205 64 323 139 528 337 231 222 251 233 450 225 95 -4 153 -14 309
-52 146 -35 207 -46 253 -44 l61 3 -52 40 c-28 22 -76 74 -108 115 -64 85 -95
104 -231 140 -47 12 -108 33 -135 46 -82 41 -182 120 -204 162 -10 21 -31 99
-45 175 -63 330 -174 545 -387 752 -159 154 -334 257 -567 335 -121 40 -346
89 -358 77 -8 -8 13 -210 32 -301 84 -406 324 -732 673 -914 125 -66 220 -97
356 -117 170 -25 206 -38 259 -94 28 -29 28 -31 9 -31 -80 0 -517 140 -928
298 -481 185 -591 239 -686 338 -95 101 -127 199 -149 459 -25 289 -84 464
-217 638 -152 200 -528 463 -767 536 -117 36 -113 39 -121 -86 -15 -236 33
-509 123 -696 57 -118 130 -219 266 -366 53 -57 96 -108 96 -113 0 -28 -184
75 -430 240 -330 223 -380 269 -459 428 -46 92 -48 129 -12 265 114 435 29
792 -268 1126 -142 160 -378 354 -415 340 -7 -3 -25 -30 -39 -59 -118 -250
-92 -729 58 -1034 101 -206 277 -390 465 -484 41 -21 83 -46 92 -57 16 -17 41
-103 33 -111 -7 -7 -148 95 -293 211 -530 424 -851 811 -852 1028 0 59 14 97
99 278 95 199 112 263 118 436 6 169 -16 294 -78 450 -89 221 -284 520 -388
595 l-30 20 -44 -62 c-190 -268 -265 -730 -171 -1055 31 -106 96 -248 155
-334 24 -35 86 -107 140 -159 72 -71 100 -106 112 -140 19 -55 29 -120 18
-120 -30 0 -406 477 -568 720 -182 272 -264 464 -266 615 -1 94 -1 92 118 271
106 158 176 300 212 430 25 88 28 116 27 254 0 135 -3 169 -27 262 -32 128
-85 273 -139 383 -58 115 -137 245 -151 245 -48 0 -151 -124 -245 -293 -112
-202 -162 -400 -162 -643 0 -246 54 -448 158 -592 31 -42 70 -98 88 -124 32
-48 58 -137 52 -180 -10 -72 -344 650 -505 1092 -50 140 -83 274 -83 344 0 87
39 150 145 234 298 236 360 304 451 487 59 119 76 176 99 330 45 300 22 608
-55 733 l-20 33 -58 -37 c-164 -104 -350 -270 -449 -401 -155 -207 -233 -443
-233 -704 0 -106 4 -135 40 -276 28 -109 40 -172 38 -207 l-4 -51 -17 39 c-59
127 -229 983 -231 1161 -1 122 21 162 137 238 45 30 98 63 117 72 133 67 315
226 393 344 70 104 94 160 132 303 90 346 107 611 41 677 -23 23 -27 23 -70
11 -57 -16 -220 -106 -307 -171 -180 -132 -332 -341 -401 -549 -45 -133 -51
-203 -44 -465 9 -314 -10 -348 -43 -80 -26 204 -35 396 -36 701 l0 330 30 59
c37 72 65 92 186 134 470 164 705 502 736 1059 3 64 2 112 -3 112 -5 0 -47 -9
-94 -20 -294 -71 -599 -321 -725 -593 -52 -113 -65 -176 -75 -376 -10 -182
-21 -234 -37 -175 -14 50 -7 431 11 599 9 88 21 215 26 282 5 67 14 132 21
145 7 13 61 73 121 135 154 160 221 269 273 450 61 210 51 456 -28 688 -37
106 -88 215 -102 215 -7 0 -30 -13 -51 -28z"/>
<path d="M24817 20111 c-90 -197 -121 -333 -120 -541 0 -134 4 -168 26 -252
51 -194 131 -329 297 -502 53 -56 102 -111 108 -123 7 -11 16 -86 22 -165 6
-78 15 -179 20 -223 19 -168 33 -412 28 -510 -5 -92 -21 -156 -35 -141 -3 2
-9 85 -13 184 -10 202 -23 268 -80 388 -75 161 -186 293 -349 413 -133 98
-322 180 -445 193 l-29 3 2 -80 c2 -98 25 -259 51 -358 68 -268 204 -463 420
-602 91 -59 119 -72 254 -122 166 -60 206 -103 226 -240 20 -142 8 -573 -25
-908 -20 -195 -34 -270 -49 -255 -7 7 -9 51 -6 133 11 272 5 426 -19 517 -48
183 -154 362 -296 505 -103 103 -205 174 -353 247 -87 43 -108 50 -130 42 -87
-30 -79 -295 19 -683 44 -174 80 -249 175 -370 75 -95 172 -178 294 -251 253
-152 295 -190 309 -279 12 -74 -1 -177 -65 -521 -82 -443 -147 -718 -174 -735
-5 -3 -12 6 -16 21 -5 18 7 83 36 193 31 121 44 193 47 266 17 326 -107 633
-356 885 -91 93 -268 233 -346 275 l-37 19 -19 -24 c-55 -71 -85 -270 -76
-504 18 -473 136 -716 476 -975 237 -180 268 -242 222 -436 -62 -255 -392
-1037 -536 -1270 l-37 -60 5 61 c6 72 26 115 103 215 98 128 156 276 185 470
15 103 6 347 -16 448 -37 167 -114 342 -221 501 -48 73 -136 160 -159 160 -28
0 -164 -247 -229 -416 -59 -157 -87 -285 -93 -427 -11 -265 49 -447 245 -742
48 -71 93 -142 100 -158 17 -41 15 -156 -5 -234 -23 -93 -136 -316 -235 -463
-195 -291 -548 -740 -581 -740 -13 0 3 91 25 137 11 24 53 74 96 114 157 147
244 292 309 519 31 106 42 329 24 474 -27 214 -124 478 -214 581 l-35 40 -29
-21 c-75 -55 -217 -253 -313 -437 -107 -205 -153 -376 -154 -567 -1 -172 34
-301 135 -503 107 -211 111 -268 34 -425 -85 -172 -269 -388 -532 -625 -213
-191 -545 -448 -560 -434 -2 3 2 30 11 60 l16 55 89 46 c49 25 116 66 148 91
114 85 239 234 316 375 157 288 188 837 60 1072 -14 26 -31 48 -37 48 -37 0
-247 -171 -368 -299 -170 -181 -273 -353 -325 -546 -25 -92 -27 -115 -27 -285
1 -175 2 -191 32 -303 42 -157 42 -212 -2 -302 -50 -104 -114 -184 -197 -246
-136 -102 -413 -286 -538 -358 -119 -68 -151 -81 -151 -63 0 5 43 55 95 113
135 147 209 247 260 352 90 186 125 366 125 640 0 201 8 187 -94 161 -132 -34
-319 -137 -515 -283 -145 -107 -242 -205 -315 -314 -110 -165 -153 -310 -181
-602 -18 -194 -34 -266 -77 -348 -40 -74 -134 -162 -223 -209 -287 -149 -1321
-518 -1456 -518 -18 0 -18 2 -4 24 30 46 104 75 244 96 157 24 253 54 382 122
250 130 441 330 563 589 75 158 121 344 140 567 7 74 17 71 -146 37 -434 -90
-766 -302 -970 -620 -96 -148 -153 -301 -194 -513 -35 -184 -47 -209 -131
-272 -88 -65 -143 -91 -278 -130 -60 -17 -120 -38 -132 -46 -13 -8 -47 -47
-77 -87 -30 -39 -78 -90 -105 -112 -28 -22 -51 -44 -51 -48 0 -16 144 5 295
43 195 50 296 64 412 57 122 -7 144 -20 331 -199 177 -169 246 -222 361 -282
290 -150 584 -173 998 -80 129 29 293 79 319 99 45 33 -190 297 -372 418 -228
152 -482 234 -755 244 -217 9 -387 -25 -567 -114 -87 -42 -96 -45 -147 -38
-35 4 -53 10 -49 17 14 22 141 70 297 113 196 53 470 146 667 227 429 176 571
222 718 234 100 8 150 -6 233 -66 267 -194 500 -293 753 -320 240 -26 541 49
864 215 59 30 125 70 146 88 l39 34 -64 65 c-139 141 -375 261 -659 334 -206
52 -429 52 -632 0 -170 -45 -261 -91 -472 -241 -41 -30 -56 -35 -104 -35 -64
0 -60 7 18 39 185 76 813 449 1236 733 214 144 299 182 409 182 89 0 116 -7
324 -91 285 -114 469 -136 698 -83 234 55 561 231 728 392 l70 68 -50 45 c-93
84 -256 153 -451 191 -121 24 -383 24 -514 0 -117 -21 -281 -75 -369 -121 -86
-45 -234 -157 -269 -202 -65 -87 -86 -104 -128 -110 -23 -3 -44 -1 -47 4 -3 5
150 145 341 311 249 215 384 340 476 441 192 209 321 320 431 372 77 37 151
38 300 3 325 -75 504 -70 734 20 228 90 539 349 695 579 l35 52 -22 19 c-39
33 -139 74 -227 93 -126 26 -360 24 -508 -5 -287 -57 -519 -170 -686 -334 -70
-70 -176 -216 -176 -244 0 -36 -106 -111 -127 -90 -9 9 70 124 272 396 219
296 239 325 345 510 123 214 214 346 299 431 101 101 126 109 350 109 442 0
637 73 896 334 125 126 230 269 313 427 45 86 79 185 68 196 -4 4 -105 8 -224
8 -311 -1 -491 -38 -703 -146 -242 -124 -447 -366 -536 -632 -19 -55 -38 -108
-43 -117 -10 -19 -78 -55 -87 -46 -9 8 18 74 170 416 131 295 160 371 272 730
66 214 150 347 252 402 34 19 76 30 138 38 501 61 781 239 1011 641 33 58 79
153 102 211 44 111 95 288 86 297 -9 9 -188 2 -274 -10 -234 -32 -470 -135
-663 -288 -184 -146 -329 -370 -388 -598 -10 -42 -19 -91 -19 -110 0 -44 -21
-92 -53 -122 l-26 -24 -7 28 c-11 43 3 140 41 280 21 81 52 248 80 440 61 416
86 532 129 620 63 127 77 138 237 186 133 39 261 96 366 160 99 62 241 196
300 284 132 196 235 509 250 758 l6 108 -44 -7 c-278 -39 -611 -223 -789 -435
-71 -86 -152 -221 -191 -323 -56 -144 -71 -219 -78 -388 l-6 -158 -37 -37 -38
-38 0 265 c0 422 29 845 66 969 20 70 62 108 190 174 469 240 656 604 625
1219 -4 70 -10 130 -13 134 -10 10 -101 -22 -192 -67 -212 -105 -432 -322
-534 -524 -81 -162 -105 -303 -105 -610 0 -126 -2 -216 -4 -200 -2 17 -29 262
-58 545 l-54 515 45 132 c57 167 74 247 74 349 0 269 -138 598 -347 825 -51
54 -134 119 -154 119 -3 0 -22 -36 -42 -79z"/>
<path d="M10860 16699 c0 -1776 3 -3228 8 -3226 4 3 648 375 1432 827 784 452
1455 840 1492 861 l67 39 -45 98 c-393 842 -424 1776 -87 2627 30 77 71 171
90 209 19 38 31 72 26 76 -9 9 -2973 1720 -2979 1720 -2 0 -4 -1454 -4 -3231z
m1430 985 c77 -23 236 -106 313 -164 122 -92 205 -207 254 -350 59 -174 76
-332 49 -461 -14 -66 -104 -270 -124 -283 -25 -15 -19 17 23 120 24 60 49 137
55 171 12 58 11 67 -14 137 -15 45 -26 98 -26 130 0 83 -10 114 -46 149 -30
28 -34 36 -33 83 2 65 -19 102 -110 197 -80 84 -134 124 -228 171 -83 42 -109
46 -72 12 20 -18 25 -31 21 -55 -5 -38 -29 -47 -78 -26 -21 9 -45 13 -53 10
-13 -5 -14 -4 -3 6 6 7 12 22 12 33 0 25 -57 76 -92 83 -15 3 -33 12 -39 19
-8 10 -36 14 -93 14 -112 0 -221 -34 -210 -65 9 -22 31 -18 70 11 l34 27 11
-32 c13 -37 30 -39 84 -6 22 14 48 25 57 25 31 0 128 -53 128 -70 0 -9 5 -21
12 -28 15 -15 5 -24 -28 -24 -29 0 -64 32 -64 58 0 26 -32 14 -43 -16 -12 -32
-34 -44 -82 -45 -23 0 -31 -5 -33 -22 -3 -19 1 -23 21 -23 39 0 58 -10 68 -38
10 -25 10 -25 24 -6 7 11 15 36 17 55 2 23 8 33 18 32 40 -5 94 -23 99 -32 4
-6 29 -17 55 -25 49 -15 86 -41 86 -60 0 -5 12 -20 28 -32 20 -17 24 -25 16
-34 -17 -17 -57 -8 -69 15 -9 18 -75 36 -75 20 0 -18 24 -47 46 -55 13 -5 24
-16 24 -25 0 -19 -39 -19 -64 0 -34 26 -48 19 -40 -20 5 -30 4 -35 -13 -35
-27 0 -55 -33 -52 -61 5 -56 -1 -71 -31 -82 -17 -6 -32 -19 -35 -28 -3 -9 -15
-19 -25 -22 -26 -7 -25 -31 1 -67 26 -35 20 -57 -18 -62 -23 -2 -31 3 -45 29
-10 18 -18 42 -18 52 0 11 -6 23 -12 28 -17 10 -51 4 -60 -11 -5 -9 -25 -11
-62 -8 -50 4 -55 2 -72 -24 -27 -40 -24 -97 5 -128 35 -37 75 -35 91 4 9 21
19 30 35 30 53 0 58 -67 7 -94 -32 -17 -21 -24 47 -28 40 -3 46 -6 52 -31 4
-16 6 -34 3 -41 -8 -21 -56 -6 -96 30 -20 18 -58 43 -84 54 -40 19 -50 20 -76
9 -26 -10 -35 -10 -63 5 -30 17 -43 36 -85 126 -4 8 -20 22 -36 30 -39 22 -56
57 -48 102 4 25 0 44 -11 62 -13 19 -15 37 -11 68 4 24 8 59 9 78 1 26 16 54
55 102 48 60 82 129 82 164 0 82 -230 -177 -310 -348 -72 -155 -58 -449 30
-632 59 -124 219 -280 372 -364 38 -20 66 -41 65 -46 -2 -6 -15 -14 -30 -19
-22 -7 -35 -3 -74 24 -187 127 -311 242 -360 335 -65 121 -112 358 -98 488 22
204 119 392 281 545 122 116 251 172 459 200 93 13 257 5 325 -15z m-388
-1001 c46 -37 128 -105 183 -151 72 -59 106 -82 120 -78 11 3 75 10 143 17
147 14 230 3 322 -43 107 -53 142 -114 256 -439 85 -244 95 -229 -156 -229
l-197 0 -6 73 c-7 88 -12 103 -40 111 -51 14 -121 2 -368 -59 -280 -70 -347
-77 -411 -47 -43 20 -481 433 -497 469 -16 34 2 63 38 63 21 0 74 -35 202
-134 96 -74 190 -138 209 -143 47 -13 103 4 210 65 106 61 127 87 111 134 -6
19 -70 107 -141 196 -71 89 -134 171 -140 181 -25 47 -5 81 47 81 25 0 51 -15
115 -67z m396 -32 c39 -19 105 -36 183 -47 58 -7 106 -36 119 -69 11 -29 24
-31 74 -10 35 15 36 15 42 -11 11 -42 -4 -46 -112 -28 -74 12 -134 15 -239 10
-150 -6 -147 -6 -223 49 -52 37 -53 69 -3 102 42 29 107 30 159 4z"/>
<path d="M21200 19063 c-806 -465 -1469 -849 -1473 -853 -5 -4 7 -39 27 -77
214 -426 344 -1042 322 -1523 -24 -496 -139 -958 -337 -1352 l-29 -58 52 -30
c29 -16 694 -400 1478 -853 l1425 -822 3 1602 c1 882 1 2325 0 3207 l-3 1605
-1465 -846z m213 -1734 c89 -14 115 -28 154 -88 28 -41 32 -57 38 -143 6 -83
10 -97 26 -101 16 -4 19 -14 18 -64 -1 -78 -10 -106 -39 -120 -17 -8 -33 -32
-48 -71 -27 -70 -74 -128 -139 -171 -74 -49 -117 -41 -213 40 -46 39 -100 123
-100 157 0 8 -18 34 -40 58 -37 40 -40 48 -40 99 0 51 2 55 24 55 24 0 24 2
28 103 3 87 6 107 26 135 33 45 85 83 145 103 62 22 68 22 160 8z m-653 -79
c6 -10 29 -24 53 -31 90 -24 133 -84 144 -201 4 -48 0 -83 -17 -145 -23 -87
-22 -113 7 -113 11 0 1 -12 -26 -32 -30 -22 -58 -33 -93 -36 -49 -5 -50 -5
-45 -36 3 -17 8 -40 11 -51 5 -15 -7 -36 -52 -84 l-58 -65 -52 69 c-29 37 -52
73 -52 79 0 6 9 17 21 24 13 8 19 21 17 35 -2 18 -14 24 -71 37 -48 10 -75 22
-88 39 -20 24 -26 46 -10 36 21 -12 21 20 1 102 -15 57 -21 106 -18 143 4 63
44 154 83 192 53 51 224 78 245 38z m1318 -19 c73 -38 102 -87 102 -176 0 -48
2 -53 25 -59 22 -6 25 -12 25 -49 0 -49 -6 -58 -41 -74 -19 -8 -28 -22 -33
-47 -4 -22 -25 -55 -57 -91 -48 -52 -54 -55 -99 -55 -45 0 -52 4 -108 58 -39
37 -62 69 -67 90 -4 18 -17 39 -30 48 -30 20 -35 43 -19 90 8 21 14 67 14 101
0 81 11 107 59 139 86 57 153 64 229 25z m172 -617 c77 -42 120 -90 131 -147
14 -74 11 -108 -17 -144 l-25 -33 -209 0 -210 0 -14 33 c-18 45 -78 94 -186
153 -49 27 -90 54 -90 59 0 16 161 113 200 120 l36 6 48 -110 c27 -61 53 -111
57 -111 15 0 10 99 -7 131 -19 39 -5 59 41 59 45 0 60 -20 46 -63 -7 -22 -8
-52 -3 -88 l8 -54 32 98 c18 53 32 105 32 115 0 39 18 36 130 -24z m-1325 2
c86 -22 125 -49 125 -86 0 -4 -35 -27 -77 -50 -82 -45 -166 -117 -189 -162
l-15 -28 -213 0 c-203 0 -214 1 -232 21 -23 25 -33 154 -15 197 13 32 95 85
156 101 64 17 66 16 50 -30 -20 -54 -19 -65 3 -47 36 32 41 30 71 -29 36 -71
93 -139 109 -129 6 3 37 45 68 92 44 65 61 84 75 81 22 -6 33 20 23 57 -7 30
-6 30 61 12z m252 -140 c-3 -7 -8 -33 -12 -57 -6 -39 -1 -55 45 -149 37 -74
54 -100 60 -90 4 8 10 56 14 106 6 83 5 93 -15 118 -20 25 -20 28 -4 46 14 15
21 17 47 8 23 -8 40 -8 63 1 18 6 40 9 49 5 20 -8 21 -52 2 -73 -12 -13 -12
-32 -3 -113 7 -53 15 -99 18 -102 3 -3 29 63 58 148 l52 153 67 -19 c74 -20
182 -88 233 -146 l32 -36 -6 -93 c-4 -51 -11 -103 -18 -114 -25 -47 -49 -49
-529 -49 -425 0 -451 1 -469 19 -23 23 -34 104 -25 194 6 61 11 75 41 108 46
51 118 96 200 125 78 27 108 30 100 10z"/>
<path d="M16878 18685 l-263 -306 -225 8 c-124 4 -267 8 -319 8 l-95 0 -57
-230 c-72 -290 -101 -366 -181 -473 -22 -30 -44 -67 -48 -82 -9 -32 9 -234 34
-390 15 -92 36 -346 36 -441 l0 -45 -77 -12 c-43 -7 -117 -24 -166 -39 -78
-23 -90 -30 -101 -57 -22 -50 -82 -112 -130 -135 -51 -23 -64 -40 -121 -155
-22 -44 -47 -85 -56 -90 -17 -10 -21 -8 -84 39 -33 24 -68 0 -77 -53 -6 -35
-3 -51 17 -89 14 -25 25 -63 25 -84 0 -32 4 -38 29 -47 17 -6 36 -24 45 -40
12 -22 33 -36 100 -62 l85 -33 170 8 170 7 48 -39 c87 -70 126 -127 133 -198
l5 -50 72 4 c69 3 72 2 108 -30 20 -19 67 -83 104 -143 87 -142 98 -150 213
-156 l91 -5 22 -65 c43 -128 66 -152 92 -99 10 19 9 27 -1 39 -34 39 -48 143
-21 154 20 7 19 42 -4 116 -15 47 -18 79 -14 130 6 66 4 71 -34 142 -33 58
-44 95 -59 181 -13 80 -15 112 -7 125 13 21 -11 72 -68 144 -62 79 -76 149
-71 360 2 96 3 98 33 125 30 27 31 30 25 93 -3 36 -27 151 -54 256 -38 156
-46 199 -39 230 5 22 6 59 3 84 -7 54 9 156 31 189 16 26 11 26 158 -8 49 -12
96 -27 103 -35 8 -7 21 -57 30 -110 11 -69 19 -95 28 -92 24 9 37 -21 25 -55
-15 -44 -14 -84 4 -99 10 -8 15 -31 15 -65 0 -50 2 -56 42 -89 23 -20 45 -36
50 -36 4 0 8 -15 8 -32 0 -18 13 -60 28 -93 16 -33 41 -112 57 -175 42 -173
129 -335 186 -347 29 -6 30 -8 27 -52 -3 -43 -1 -47 30 -63 19 -9 39 -24 47
-34 12 -17 15 -17 50 10 42 32 53 52 36 69 -6 6 -11 19 -11 29 0 10 -9 44 -20
75 -11 31 -22 80 -26 107 -3 28 -14 106 -25 173 -11 68 -17 138 -14 157 10 52
41 96 67 96 49 0 152 -41 270 -106 121 -68 124 -69 193 -68 82 1 178 34 200
68 8 12 14 44 14 72 0 27 11 105 24 174 42 209 42 190 1 282 -28 65 -37 98
-39 150 -2 56 -7 75 -35 118 -18 28 -44 58 -57 67 -21 14 -25 14 -47 0 -13 -9
-26 -29 -29 -46 -15 -73 -102 -15 -180 121 -21 36 -54 79 -74 97 -33 29 -35
34 -29 74 4 23 22 69 41 103 65 116 64 185 -5 256 -52 55 -74 136 -68 251 4
79 7 89 44 142 35 52 39 63 38 119 -1 132 -114 306 -197 306 -9 0 -134 -137
-279 -305z"/>
<path d="M17556 18115 c-14 -75 31 -195 74 -195 21 0 21 29 -1 59 -16 22 -20
36 -14 58 4 15 8 46 9 68 1 38 -1 40 -30 43 -29 3 -32 0 -38 -33z"/>
<path d="M17527 17863 c-4 -3 -7 -19 -7 -34 0 -33 35 -48 69 -29 24 12 26 23
11 51 -10 19 -59 27 -73 12z"/>
<path d="M16969 15993 c-11 -55 -7 -168 7 -220 3 -12 16 -23 28 -25 17 -2 21
-9 18 -37 -1 -19 -12 -49 -23 -68 l-21 -33 30 -27 c16 -16 40 -37 53 -49 13
-11 31 -34 40 -51 14 -25 25 -32 60 -38 72 -11 80 -15 95 -50 10 -25 26 -39
58 -54 53 -23 83 -66 132 -188 21 -52 34 -101 34 -129 0 -43 4 -49 73 -117 39
-40 96 -92 125 -117 51 -43 54 -48 62 -110 5 -36 10 -93 10 -127 0 -78 16 -98
73 -89 21 4 52 13 67 21 25 13 30 13 40 -1 20 -23 30 -13 51 46 53 149 53 148
25 191 -15 21 -30 39 -35 39 -11 0 -131 119 -131 130 0 5 18 30 40 55 22 25
40 48 40 51 0 15 -29 54 -69 95 -95 94 -153 212 -167 339 -5 37 -14 63 -29 80
-29 32 -47 69 -75 153 -12 38 -27 70 -34 73 -6 2 -11 32 -12 75 -1 76 -12 100
-34 74 -18 -22 -50 -19 -93 10 -55 38 -133 51 -181 31 -37 -15 -38 -15 -62 12
-95 108 -100 112 -142 112 l-41 0 -12 -57z"/>
<path d="M12538 14063 c-818 -472 -1487 -860 -1488 -864 0 -6 5516 -3193 5536
-3197 12 -3 14 261 12 1709 l-3 1713 -130 13 c-987 98 -1873 632 -2425 1461
-15 23 -19 21 -1502 -835z m1800 -328 c4 -43 -13 -69 -28 -45 -11 17 -13 74
-3 84 15 14 28 -2 31 -39z m-48 -45 c11 -11 20 -28 20 -37 1 -13 5 -10 16 9 8
15 23 32 34 38 18 10 20 8 20 -18 0 -49 -33 -72 -90 -63 -10 2 -40 59 -40 75
0 22 16 20 40 -4z m9 -107 c17 -21 31 -31 31 -24 0 20 30 51 48 51 11 0 13 -8
8 -32 -18 -90 -114 -83 -132 10 -9 43 7 41 45 -5z m-499 -53 c32 -24 16 -45
-27 -36 -40 9 -82 43 -65 54 18 12 64 3 92 -18z m1050 24 c0 -12 -24 -50 -47
-75 l-24 -26 41 0 c31 0 40 3 36 13 -9 22 57 17 88 -7 38 -30 33 -43 -14 -36
-22 3 -43 1 -46 -4 -7 -11 -95 -12 -113 0 -7 5 -10 14 -7 20 4 6 0 11 -8 11
-9 0 -16 4 -16 9 0 5 -13 -4 -29 -20 -34 -34 -51 -37 -51 -9 0 33 23 71 51 86
36 18 39 18 39 -3 1 -17 1 -17 11 0 14 24 89 58 89 41z m118 -6 c-10 -30 -128
-65 -128 -38 0 6 15 19 33 30 35 22 101 28 95 8z m-1105 -9 c12 -6 30 -21 40
-33 15 -16 18 -17 13 -3 -9 27 26 21 57 -11 30 -31 48 -92 27 -92 -6 0 -27 15
-46 34 -20 20 -34 28 -34 20 0 -8 -3 -14 -6 -14 -17 0 -63 36 -78 60 -28 48
-18 62 27 39z m-134 -44 c14 -13 11 -15 -28 -15 -43 0 -81 14 -81 30 0 24 81
13 109 -15z m563 -2 c9 -10 18 -27 20 -38 4 -18 6 -17 16 7 11 28 58 65 69 55
3 -3 3 -21 -1 -40 -8 -43 -43 -76 -76 -72 -14 2 -28 4 -33 4 -14 2 -47 66 -47
94 0 23 3 26 18 18 9 -5 25 -17 34 -28z m753 27 c7 -12 -47 -40 -79 -40 -34 0
-41 16 -14 34 25 18 83 21 93 6z m83 -46 c32 -22 27 -34 -15 -34 -39 1 -73 19
-73 39 0 16 62 13 88 -5z m-1498 -5 c0 -12 -61 -39 -90 -39 -25 0 -26 25 -2
39 23 14 92 14 92 0z m174 -9 c-1 -12 7 -15 31 -12 18 2 43 -1 55 -8 21 -11
21 -12 3 -27 -17 -14 -17 -14 1 -9 29 10 82 -4 106 -26 49 -46 -36 -49 -102
-4 -38 25 -100 39 -165 37 -49 -1 -53 6 -20 36 38 35 93 43 91 13z m-104 3
c-1 -22 -44 -53 -75 -53 -25 0 -14 32 15 47 28 14 60 17 60 6z m929 -105 c-6
-16 -20 -33 -30 -38 -15 -9 -19 -5 -24 23 -8 39 6 78 37 107 l23 21 3 -42 c2
-23 -2 -55 -9 -71z m414 90 l22 -23 -24 -3 c-29 -4 -71 16 -71 35 0 21 48 15
73 -9z m-978 -19 c20 -25 25 -40 23 -72 -4 -52 -22 -57 -48 -15 -20 34 -28
118 -11 118 5 0 21 -14 36 -31z m221 -53 c28 -28 34 -42 34 -76 0 -33 -3 -41
-15 -37 -10 5 -9 -2 5 -26 24 -39 28 -102 5 -93 -19 7 -19 -3 0 -28 8 -11 15
-38 15 -59 0 -38 -1 -39 -22 -25 -36 24 -59 62 -65 109 l-6 43 26 -17 26 -17
-24 36 c-31 45 -35 101 -8 98 8 -1 5 12 -7 37 -22 42 -26 89 -9 89 6 0 26 -15
45 -34z m498 25 c10 -15 -47 -44 -96 -49 -57 -5 -63 9 -15 38 33 20 101 27
111 11z m-364 -35 c0 -41 -39 -101 -65 -101 -17 0 -20 6 -19 39 1 31 9 46 33
68 41 36 51 35 51 -6z m140 -69 c0 -46 -16 -81 -35 -73 -11 4 -12 0 -4 -20 10
-27 -3 -98 -21 -109 -14 -9 -40 37 -40 71 0 17 9 43 20 57 12 15 20 40 20 64
0 21 7 49 17 62 15 23 17 23 30 6 7 -11 13 -36 13 -58z m-404 26 c9 -20 13
-45 10 -56 -3 -12 3 -31 15 -45 23 -30 25 -90 4 -118 -15 -19 -15 -19 -31 1
-11 14 -14 34 -11 67 2 29 0 46 -6 45 -13 -3 -37 42 -37 70 0 27 20 73 32 73
5 0 16 -16 24 -37z m554 3 c0 -19 -56 -65 -88 -72 -15 -3 -33 -7 -39 -10 -33
-10 6 50 51 77 37 22 76 25 76 5z m-647 -36 c22 -22 37 -43 34 -46 -3 -4 -22
-3 -41 0 -37 7 -80 37 -96 67 -10 17 -7 19 26 19 29 0 44 -8 77 -40z m807 -37
c-85 -70 -242 -228 -291 -294 -59 -80 -120 -200 -148 -292 -36 -118 -44 -231
-37 -514 l6 -263 -32 0 -31 0 6 323 c4 177 10 334 13 350 6 25 4 27 -24 27
-30 0 -30 1 -37 63 -10 95 -30 166 -75 262 -22 49 -38 90 -36 92 2 2 30 -39
62 -92 65 -106 71 -106 75 0 l2 60 11 -84 11 -84 71 114 c39 63 79 130 88 149
9 19 31 45 49 58 32 23 32 23 5 16 -31 -7 -34 0 -15 33 27 47 117 94 117 60 0
-9 -15 -31 -33 -51 -29 -31 -31 -35 -14 -38 18 -3 17 -5 -5 -38 -13 -20 -43
-45 -69 -57 -42 -20 -49 -29 -89 -115 -59 -126 -77 -181 -83 -258 l-6 -65 18
63 c58 198 223 405 441 555 96 65 115 73 50 20z m170 -49 c-168 -84 -178 -90
-265 -178 -140 -139 -210 -265 -260 -460 -35 -138 -45 -229 -52 -463 -6 -204
-7 -213 -26 -213 -19 0 -20 6 -14 248 5 253 17 351 58 502 66 237 251 454 476
557 60 28 232 92 248 93 5 0 -69 -39 -165 -86z m-1471 42 c178 -69 270 -127
377 -237 135 -140 201 -271 243 -479 24 -118 41 -333 41 -517 l0 -123 -25 0
-25 0 0 180 c0 287 -26 457 -99 645 -56 146 -185 316 -298 391 -32 22 -118 69
-193 106 -149 74 -156 86 -21 34z m302 -47 c184 -136 322 -309 379 -475 39
-111 50 -230 50 -541 l0 -293 -24 0 -25 0 -3 343 c-5 386 -8 409 -89 571 -72
143 -179 272 -354 425 -75 65 -45 52 66 -30z m555 39 c-7 -44 -48 -98 -73 -98
-8 0 -13 13 -13 39 0 29 7 47 29 70 16 17 37 31 46 31 15 0 17 -6 11 -42z
m-350 -20 c38 -29 53 -49 54 -70 0 -12 -6 -15 -22 -10 -18 4 -15 -1 14 -26 20
-18 41 -45 46 -61 10 -29 10 -29 -16 -15 -15 8 -32 14 -38 14 -16 0 -74 67
-74 86 0 11 6 14 23 8 20 -6 19 -4 -6 16 -15 12 -34 35 -42 51 -15 28 -15 29
8 29 14 0 37 -10 53 -22z m-789 -4 c-3 -3 -12 -4 -19 -1 -8 3 -5 6 6 6 11 1
17 -2 13 -5z m153 -35 c251 -67 404 -172 524 -356 79 -122 138 -292 165 -470
8 -53 30 -376 31 -455 0 -5 -13 -8 -30 -8 -29 0 -30 1 -30 48 -1 87 -19 342
-31 410 -62 379 -208 607 -474 738 -60 30 -153 70 -205 89 -119 43 -100 44 50
4z m1818 -3 c-131 -45 -270 -114 -347 -172 -137 -103 -248 -285 -300 -494 -40
-160 -51 -237 -58 -442 l-6 -178 -30 0 -30 0 6 168 c8 203 22 318 52 438 49
194 127 343 239 454 124 123 232 181 439 234 132 35 148 31 35 -8z m-831 -53
c-4 -37 -12 -54 -37 -75 -35 -32 -50 -29 -50 8 0 34 16 64 48 91 39 33 45 29
39 -24z"/>
<path d="M19476 14818 c-541 -776 -1450 -1304 -2373 -1379 -76 -6 -148 -13
-160 -15 l-23 -4 0 -1716 c0 -1594 1 -1716 17 -1710 31 12 5563 3209 5563
3215 0 5 -2838 1647 -2924 1692 l-31 16 -69 -99z m-503 -1478 c269 -57 316
-64 532 -85 88 -9 164 -20 169 -25 5 -5 -17 -39 -57 -85 -37 -42 -67 -82 -67
-89 0 -7 -16 -31 -35 -54 -26 -30 -46 -43 -73 -48 -20 -3 -46 -8 -57 -11 -32
-10 27 -24 106 -25 79 -2 93 5 183 99 62 65 65 67 127 74 82 10 144 1 165 -22
16 -18 16 -34 5 -209 -7 -104 -10 -221 -6 -260 8 -83 -1 -100 -52 -100 -42 0
-54 6 -165 82 -120 81 -141 88 -250 88 l-93 -1 45 -16 c62 -21 67 -26 110
-119 20 -44 48 -88 61 -97 12 -9 21 -18 18 -21 -2 -2 -37 -18 -77 -35 -93 -41
-203 -64 -266 -57 -52 6 -136 48 -203 102 l-41 34 -141 0 c-78 0 -141 -3 -141
-6 0 -3 9 -17 20 -31 23 -30 25 -52 8 -123 -10 -44 -9 -59 7 -106 10 -30 15
-57 12 -61 -12 -12 -136 58 -189 106 -60 55 -95 117 -104 185 -4 25 -12 46
-18 46 -7 0 -84 20 -172 45 -243 69 -342 125 -350 198 -4 37 0 43 152 208 86
93 175 181 199 194 36 22 43 31 48 66 3 22 16 61 29 87 20 41 31 50 78 69 59
23 177 51 223 52 15 1 132 -21 260 -49z"/>
<path d="M18918 13324 c-3 -3 -28 -7 -55 -9 -127 -11 -146 -20 -189 -92 -29
-50 -16 -58 17 -10 29 42 71 87 81 87 4 0 -8 -21 -27 -46 -19 -25 -35 -53 -34
-62 0 -12 8 -6 27 18 40 51 92 100 106 100 7 0 -7 -20 -30 -45 -47 -48 -70
-85 -55 -85 5 0 27 21 47 46 44 53 99 84 149 84 22 0 34 4 30 10 -7 11 -58 14
-67 4z"/>
<path d="M18673 13295 c-21 -15 -73 -98 -73 -117 0 -19 31 15 52 56 11 23 27
49 36 59 19 21 13 22 -15 2z"/>
<path d="M18905 13282 c-36 -23 -80 -70 -88 -94 -11 -31 7 -20 47 28 21 25 54
52 72 60 48 20 65 16 24 -5 -35 -19 -80 -70 -80 -92 0 -6 22 9 49 34 31 29 64
50 92 57 64 16 67 18 33 19 -17 1 -51 3 -75 7 -33 4 -51 0 -74 -14z"/>
<path d="M18581 13267 c-13 -16 -41 -82 -41 -97 0 -26 19 -6 35 38 10 26 22
53 28 60 13 17 -7 16 -22 -1z"/>
<path d="M18511 13239 c-19 -32 -30 -102 -13 -85 9 10 42 109 37 114 -2 3 -13
-11 -24 -29z"/>
<path d="M19002 13241 c-44 -32 -57 -49 -48 -59 4 -3 28 15 54 41 54 54 52 59
-6 18z"/>
<path d="M19085 13248 c-50 -26 -75 -47 -75 -65 0 -21 12 -15 69 37 30 28 53
50 50 50 -2 -1 -22 -10 -44 -22z"/>
<path d="M19109 13222 c-48 -31 -75 -59 -66 -68 7 -7 70 40 101 75 25 28 19
27 -35 -7z"/>
<path d="M19255 13201 c-48 -22 -98 -67 -90 -81 3 -5 32 11 63 36 90 73 91 75
27 45z"/>
<path d="M19139 13170 c-27 -24 -38 -39 -29 -40 9 0 34 18 55 40 50 52 31 52
-26 0z"/>
<path d="M19284 13172 c-62 -40 -91 -68 -81 -78 3 -4 27 12 54 35 26 22 59 49
73 60 40 33 18 24 -46 -17z"/>
<path d="M19332 13149 c-30 -17 -51 -33 -48 -36 8 -8 -13 -33 -27 -33 -6 0 -2
7 9 15 10 8 14 15 8 15 -17 0 -47 -37 -35 -44 10 -6 183 85 176 92 -2 2 -29
-7 -59 -21 -68 -31 -72 -27 -11 9 25 14 45 28 45 30 0 6 -2 5 -58 -27z"/>
<path d="M19389 13116 c-31 -12 -73 -33 -93 -46 -32 -19 -36 -25 -24 -37 12
-12 26 -8 97 27 46 23 81 43 79 45 -5 5 -97 -29 -140 -51 -15 -8 -28 -12 -28
-9 0 4 42 26 93 50 99 48 108 59 16 21z"/>
<path d="M19383 13043 c-77 -34 -102 -53 -69 -53 8 0 52 20 97 45 101 54 85
58 -28 8z"/>
<path d="M19763 13050 c-63 -32 -147 -99 -124 -100 7 0 34 15 60 33 25 19 65
44 89 57 23 13 42 27 42 32 0 11 0 11 -67 -22z"/>
<path d="M19382 13002 c-37 -15 -59 -29 -54 -34 6 -6 37 5 78 26 80 41 67 46
-24 8z"/>
<path d="M19750 12999 c-54 -29 -124 -89 -105 -89 6 0 51 27 100 60 95 63 98
80 5 29z"/>
<path d="M19756 12955 c-54 -22 -111 -63 -102 -72 2 -3 30 11 62 29 32 18 76
41 99 50 25 10 32 17 20 17 -11 0 -46 -10 -79 -24z"/>
<path d="M19842 12939 c-64 -11 -144 -44 -167 -69 -27 -30 1 -33 46 -4 45 28
140 64 171 64 10 0 18 5 18 10 0 6 -3 9 -7 9 -5 -1 -32 -5 -61 -10z"/>
<path d="M18380 12896 c0 -4 11 -24 25 -44 32 -47 31 -69 -3 -167 -34 -95 -47
-122 -64 -128 -7 -2 -10 -8 -5 -12 11 -12 61 28 69 56 4 13 18 60 32 104 13
44 22 92 19 107 -4 23 -73 103 -73 84z"/>
<path d="M19710 12833 c-51 -24 -53 -26 -30 -32 23 -6 23 -8 6 -14 -13 -5 -16
-11 -9 -18 10 -10 157 21 171 36 4 4 -26 5 -66 3 -40 -3 -71 -3 -68 -1 2 3 37
15 78 28 l73 24 -50 0 c-34 1 -68 -8 -105 -26z"/>
<path d="M18193 12840 c-32 -13 -30 -48 3 -60 47 -18 85 25 52 58 -14 14 -24
14 -55 2z"/>
<path d="M19693 12750 c-42 -17 -24 -22 76 -18 65 2 96 6 90 13 -13 13 -139
17 -166 5z"/>
<path d="M19665 12700 c7 -12 162 -12 190 0 13 6 -18 9 -88 9 -70 1 -106 -3
-102 -9z"/>
<path d="M19660 12668 c0 -9 34 -26 96 -47 107 -36 135 -34 53 4 -59 27 -36
25 66 -6 46 -14 55 -15 41 -4 -61 45 -256 86 -256 53z"/>
<path d="M19290 12583 c-25 -20 -74 -49 -109 -65 l-63 -29 53 -35 c66 -42 98
-45 41 -4 -52 37 -56 49 -6 15 42 -28 36 -27 126 -29 36 -1 64 2 62 6 -3 5
-12 8 -21 8 -9 0 -14 3 -11 6 3 3 32 -2 64 -10 32 -8 60 -14 62 -12 2 2 -32
18 -75 35 -81 31 -81 41 1 17 43 -13 46 -13 34 1 -12 14 -11 15 9 5 32 -18 38
-15 18 8 -10 11 -14 20 -10 20 5 0 -4 14 -20 30 -16 17 -25 30 -19 30 5 1 -2
10 -15 20 -34 29 -70 24 -121 -17z m131 -34 c23 -11 39 -22 37 -24 -2 -3 -26
7 -53 20 -26 14 -43 25 -36 25 6 0 30 -9 52 -21z m-26 -23 c50 -21 43 -26 -12
-10 -66 20 -71 22 -45 23 12 1 38 -6 57 -13z m-75 -51 c19 -7 28 -14 20 -14
-8 0 -28 6 -45 14 -39 17 -21 18 25 0z"/>
<path d="M18585 12472 c-7 -7 34 -105 51 -121 10 -11 9 -4 -5 19 -31 52 -25
69 8 22 16 -22 36 -43 43 -47 10 -6 11 -5 1 6 -22 23 -14 33 10 12 42 -38 52
-36 16 3 -20 21 -42 50 -49 64 -11 22 -7 20 26 -11 58 -53 83 -68 48 -29 -16
19 -36 43 -44 53 -12 16 -11 17 16 7 24 -9 27 -9 16 2 -11 11 -128 29 -137 20z
m83 -88 c-4 -3 -12 5 -18 18 -12 22 -12 22 6 6 10 -10 15 -20 12 -24z"/>
<path d="M16655 14807 c-19 -45 -11 -83 21 -104 44 -28 57 -128 24 -178 -36
-54 -22 -115 26 -115 35 0 47 24 41 81 -5 39 -2 57 13 82 30 48 26 81 -14 114
-23 20 -35 39 -39 67 -4 23 -17 51 -31 65 l-25 25 -16 -37z"/>
<path d="M15089 9753 c-6 -16 -9 -55 -7 -88 7 -117 90 -250 250 -400 92 -86
144 -115 403 -224 94 -39 179 -76 190 -81 38 -19 -205 -3 -285 19 -171 46
-336 138 -457 254 l-63 60 0 -69 c0 -96 31 -156 135 -260 170 -171 281 -211
560 -201 83 3 159 9 170 13 18 7 19 6 5 -11 -23 -28 -66 -42 -173 -55 -116
-15 -372 -9 -404 9 -19 9 -23 9 -23 -2 0 -42 119 -155 208 -198 36 -18 56 -21
110 -17 77 6 247 60 298 94 53 36 42 4 -18 -52 -69 -65 -118 -94 -190 -114
-57 -15 -58 -16 -42 -38 22 -31 77 -52 141 -52 74 0 110 18 170 83 28 32 54
57 57 57 23 0 -18 -123 -59 -176 -26 -34 -27 -36 -8 -56 16 -18 25 -20 88 -14
76 7 107 22 134 67 10 16 21 26 24 22 15 -14 6 -68 -15 -90 -30 -32 -14 -46
62 -51 33 -2 60 -8 60 -12 0 -13 -99 -97 -173 -147 -45 -30 -67 -51 -65 -62 5
-27 67 -53 113 -46 35 5 41 3 50 -17 12 -27 53 -35 86 -17 18 9 24 8 31 -5 6
-10 22 -16 43 -16 19 0 37 -4 40 -10 9 -15 41 -12 56 6 12 14 14 14 25 -1 16
-22 111 -28 141 -9 14 9 24 10 28 4 8 -13 52 -13 60 0 3 6 21 10 40 10 21 0
37 6 43 16 7 13 13 14 30 5 11 -6 34 -11 51 -11 24 0 32 5 37 24 5 23 10 24
52 20 36 -4 55 0 80 15 17 12 32 27 32 35 0 8 -30 35 -67 59 -82 53 -175 135
-167 148 3 5 27 9 53 9 26 0 56 6 66 14 18 13 18 14 -2 35 -27 29 -32 51 -21
81 10 24 10 24 18 4 15 -39 67 -72 123 -79 69 -9 97 -4 111 18 8 12 8 22 -2
35 -26 35 -63 123 -68 159 l-6 38 55 -58 c65 -67 106 -87 182 -87 65 0 116 19
139 51 16 23 16 23 -43 39 -71 20 -131 55 -193 114 -59 56 -66 88 -12 51 20
-14 85 -41 145 -60 186 -60 257 -47 387 70 71 64 113 143 60 113 -17 -9 -78
-13 -223 -13 -219 0 -298 12 -342 49 l-27 23 60 -8 c146 -21 381 -7 462 27 59
24 181 115 245 184 87 92 117 154 117 243 l0 69 -69 -64 c-128 -121 -280 -205
-449 -249 -85 -22 -263 -42 -287 -32 -10 3 55 35 167 83 304 128 327 141 429
238 111 105 170 180 212 269 27 58 32 79 32 145 0 44 -5 82 -11 88 -8 8 -57
-26 -185 -130 -96 -78 -214 -168 -263 -201 -190 -126 -426 -226 -585 -248
-133 -18 -152 -67 -88 -226 56 -139 68 -200 57 -272 -27 -165 -114 -284 -243
-329 -63 -22 -65 -7 -14 98 25 51 58 129 72 173 23 68 26 90 21 148 -7 80 -22
119 -78 205 l-41 63 -23 -34 c-24 -36 -58 -54 -109 -59 l-30 -3 -6 -117 c-5
-109 -8 -119 -38 -167 -18 -28 -36 -51 -40 -51 -3 0 -21 23 -40 50 -33 48 -34
55 -40 168 l-6 117 -40 5 c-49 7 -88 32 -104 67 -15 32 -20 28 -78 -67 -41
-67 -63 -140 -63 -211 0 -52 40 -170 97 -287 51 -105 49 -120 -14 -98 -95 34
-182 124 -218 227 -44 124 -39 198 26 362 70 174 54 216 -92 242 -266 46 -521
183 -856 459 -84 70 -155 126 -158 126 -3 0 -10 -12 -16 -27z"/>
<path d="M16598 9324 c-48 -15 -98 -62 -98 -92 0 -9 7 -26 15 -36 27 -36 16
-72 -14 -43 -10 10 -12 3 -9 -33 2 -35 8 -47 28 -58 23 -13 29 -11 79 22 38
26 64 36 91 36 27 0 53 -10 91 -36 50 -33 56 -35 79 -22 20 11 26 23 28 58 3
36 1 43 -9 33 -7 -7 -17 -13 -21 -13 -14 0 -9 47 7 60 39 33 -9 102 -88 125
-62 18 -117 18 -179 -1z"/>
<path d="M24915 27040 c-8 -13 11 -47 34 -60 31 -16 81 -100 81 -136 0 -53 -9
-63 -651 -769 -352 -388 -435 -472 -497 -501 -40 -19 -61 -12 -123 37 -42 33
-69 37 -69 12 0 -27 4 -31 146 -154 73 -63 232 -210 355 -328 254 -243 332
-311 358 -311 28 0 99 52 200 147 70 66 93 93 88 106 -10 25 -32 21 -84 -17
-126 -90 -212 -63 -406 127 -128 126 -144 182 -77 271 33 43 442 496 448 496
11 0 258 -239 284 -274 40 -55 38 -100 -7 -167 -36 -52 -41 -79 -18 -86 14 -5
313 276 313 295 0 8 -16 12 -48 12 -63 0 -88 17 -282 189 -147 131 -150 134
-133 154 84 95 437 482 442 484 11 4 288 -270 310 -307 29 -49 28 -108 -4
-151 -43 -60 -51 -79 -34 -90 8 -5 18 -9 23 -9 5 0 47 37 95 83 47 46 104 98
126 117 57 48 62 66 22 86 -18 10 -48 29 -67 43 -52 38 -389 342 -598 539
-170 160 -211 189 -227 162z"/>
<path d="M7078 25738 c-8 -7 -81 -89 -161 -183 -81 -93 -189 -217 -242 -273
-52 -57 -95 -110 -95 -118 0 -33 32 -25 80 20 89 83 124 85 218 14 111 -84
904 -789 1049 -932 161 -161 171 -186 103 -271 -69 -87 -16 -104 57 -18 159
187 244 282 353 398 310 328 390 422 390 460 0 32 -51 104 -149 207 -64 68
-92 90 -104 85 -23 -9 -22 -40 2 -61 29 -26 63 -113 63 -161 0 -23 -7 -57 -15
-76 -32 -76 -252 -316 -311 -339 -85 -32 -141 0 -396 225 -512 450 -836 743
-862 779 -39 54 -34 88 26 168 42 56 50 88 22 88 -7 0 -19 -6 -28 -12z"/>
<path d="M27133 24744 c-3 -10 8 -44 27 -81 19 -39 33 -81 34 -105 1 -37 -4
-45 -51 -87 -28 -25 -179 -127 -335 -225 -604 -383 -692 -448 -796 -594 -135
-190 -148 -419 -37 -658 54 -117 156 -264 232 -334 76 -69 209 -140 313 -166
100 -25 249 -15 367 24 156 53 182 67 676 379 397 251 437 273 488 273 33 0
43 -7 92 -61 53 -60 77 -69 77 -29 0 11 -34 70 -76 132 -43 62 -115 176 -161
253 -98 163 -115 184 -137 166 -13 -11 -10 -22 20 -84 58 -122 48 -148 -93
-244 -117 -80 -693 -445 -814 -516 -236 -139 -399 -164 -556 -87 -128 63 -236
204 -269 350 -42 183 39 357 240 516 44 36 245 169 446 296 553 351 559 354
618 324 17 -9 45 -36 63 -61 19 -27 39 -44 48 -43 35 7 20 46 -67 173 -49 72
-130 200 -182 285 -131 219 -151 244 -167 204z"/>
<path d="M5376 23468 c-8 -13 -35 -69 -60 -125 -25 -56 -81 -174 -126 -262
-84 -169 -94 -201 -60 -201 13 0 27 14 41 43 54 106 102 137 181 117 64 -17
1151 -512 1141 -520 -4 -4 -84 -31 -178 -60 -93 -29 -399 -128 -680 -220 -280
-93 -629 -205 -773 -249 -145 -45 -272 -86 -283 -92 -27 -14 -23 -44 9 -67 15
-11 370 -191 789 -401 839 -419 852 -427 838 -498 -4 -21 -16 -59 -27 -85 -21
-50 -18 -68 11 -68 14 0 31 28 67 108 27 59 91 192 141 295 51 103 93 197 93
207 0 13 -7 20 -19 20 -13 0 -30 -19 -51 -56 -63 -112 -102 -126 -232 -81 -74
24 -1068 469 -1068 477 0 3 46 18 103 34 295 84 1443 464 1711 566 73 28 100
53 86 79 -6 12 -326 179 -781 408 -866 435 -867 436 -856 518 4 25 14 59 23
76 27 52 -9 85 -40 37z"/>
<path d="M27899 21851 c-823 -287 -865 -301 -925 -301 -49 0 -72 21 -109 103
-19 41 -32 57 -43 55 -31 -6 -24 -44 36 -194 33 -82 79 -207 102 -279 50 -152
65 -185 86 -185 24 0 27 26 10 77 -9 25 -16 67 -16 93 0 39 5 51 33 77 17 17
52 42 77 56 39 21 1079 437 1095 437 3 0 -31 -69 -76 -152 -185 -349 -753
-1534 -777 -1622 -11 -40 1 -66 30 -66 11 0 385 126 832 281 456 158 833 283
861 286 64 6 98 -18 132 -94 17 -40 28 -53 41 -51 29 6 25 32 -23 155 -26 65
-72 190 -102 278 -57 170 -74 205 -98 205 -19 0 -19 -31 0 -94 30 -99 17 -144
-52 -188 -34 -20 -1164 -468 -1171 -463 -3 2 427 876 695 1412 126 252 204
417 200 427 -4 10 -18 16 -39 16 -18 -1 -378 -121 -799 -269z"/>
<path d="M6114 20673 c-63 -162 -147 -233 -446 -378 -177 -85 -580 -267 -584
-262 -1 1 -14 27 -29 57 -152 303 -413 459 -660 395 -136 -36 -227 -117 -300
-269 -51 -107 -59 -133 -125 -416 -27 -118 -68 -280 -90 -359 -44 -157 -47
-186 -26 -194 20 -8 34 12 52 74 22 73 56 117 99 125 46 8 139 -12 777 -172
627 -157 763 -195 831 -231 64 -36 73 -56 58 -134 -14 -69 -5 -93 27 -73 12 8
29 63 58 190 22 98 62 257 89 353 34 125 45 179 38 190 -20 32 -37 15 -65 -64
-32 -94 -62 -125 -116 -125 -57 1 -176 24 -414 81 -169 41 -218 56 -218 68 0
26 58 222 70 237 7 7 66 34 133 60 474 182 560 221 662 296 67 50 115 116 143
199 32 94 95 358 88 374 -10 27 -37 16 -52 -22z m-1457 -513 c109 -26 203 -73
262 -131 64 -63 86 -110 86 -184 0 -71 -47 -225 -80 -263 l-22 -25 -391 98
c-215 53 -396 103 -402 110 -14 17 14 154 45 215 43 85 128 154 230 186 60 19
179 16 272 -6z"/>
<path d="M29443 19434 c2 -83 1 -87 -26 -110 -15 -13 -51 -30 -80 -39 -74 -21
-1286 -240 -1439 -260 -179 -22 -207 -13 -234 84 -19 65 -30 82 -50 74 -20 -8
-18 -33 21 -220 19 -93 46 -244 60 -338 31 -206 40 -235 67 -235 19 0 20 4 13
105 -11 155 -1 164 209 210 115 25 832 156 1201 220 110 19 221 35 246 35 63
0 94 -26 116 -98 20 -68 30 -83 49 -75 21 8 18 46 -16 206 -17 78 -42 218 -56
311 -30 195 -36 216 -63 216 -19 0 -20 -6 -18 -86z"/>
<path d="M3676 18342 c-2 -4 -1 -37 4 -72 9 -70 -14 -446 -50 -810 -24 -248
-25 -306 -6 -313 22 -9 33 12 41 73 9 68 26 109 55 135 20 18 35 20 139 18
129 -2 1123 -75 1326 -98 170 -19 231 -32 261 -58 25 -22 26 -26 33 -164 1 -7
7 -13 15 -13 28 0 34 30 45 223 6 108 20 275 31 370 11 94 27 255 36 356 18
206 15 223 -39 246 -39 16 -224 53 -285 56 -83 5 -79 -39 6 -60 141 -36 181
-123 162 -351 -17 -197 -48 -259 -137 -276 -37 -7 -689 39 -699 49 -8 7 25
346 37 387 22 73 61 100 147 100 48 0 64 4 69 16 3 8 1 20 -5 26 -6 6 -80 21
-164 34 -84 12 -171 27 -193 32 -71 16 -84 -4 -37 -59 27 -33 27 -34 25 -174
-2 -146 -16 -342 -25 -351 -6 -5 -669 44 -675 50 -7 7 29 332 43 391 8 33 22
70 30 83 21 32 73 52 134 52 38 0 52 4 57 16 10 27 -20 40 -119 53 -51 7 -121
19 -156 27 -71 16 -99 18 -106 6z"/>
<path d="M29676 18224 c-3 -9 -6 -36 -6 -61 0 -71 -21 -124 -65 -168 -35 -35
-144 -87 -870 -409 -456 -203 -851 -379 -877 -392 -75 -38 -74 -75 4 -115 21
-11 246 -101 499 -200 254 -98 568 -223 698 -275 130 -53 292 -118 361 -144
241 -91 303 -136 315 -227 3 -26 7 -55 8 -63 3 -22 43 -25 49 -3 3 10 1 65 -3
123 -4 58 -8 184 -8 281 -1 133 -4 180 -15 194 -12 16 -16 17 -30 6 -12 -10
-16 -31 -16 -77 0 -71 -14 -94 -60 -94 -16 0 -118 31 -227 68 -378 131 -1123
397 -1123 402 0 11 1261 520 1301 526 58 8 78 -14 86 -89 6 -58 22 -77 44 -51
8 10 10 48 5 137 -3 67 -8 230 -12 362 -3 132 -7 250 -10 263 -5 26 -39 30
-48 6z"/>
<path d="M5446 16502 c-3 -5 -4 -52 -3 -105 4 -172 46 -160 -933 -272 -316
-37 -622 -69 -680 -72 -102 -6 -107 -5 -134 19 -21 18 -33 42 -45 94 -14 56
-21 69 -37 69 -28 0 -28 -32 -5 -197 12 -79 30 -237 41 -352 11 -115 25 -215
31 -222 6 -7 17 -10 25 -7 10 4 14 25 14 87 0 129 27 159 160 180 117 19 560
70 564 65 2 -3 95 -802 109 -944 2 -18 -14 -21 -233 -47 -129 -15 -285 -29
-347 -30 -105 -3 -113 -2 -137 21 -17 16 -30 45 -40 88 -16 73 -19 78 -41 70
-20 -8 -19 -55 5 -224 11 -76 28 -227 38 -336 10 -109 24 -203 30 -209 6 -6
18 -8 26 -5 13 5 16 24 16 96 0 111 16 135 100 157 53 14 998 126 1340 160
176 17 279 14 315 -10 15 -10 27 -33 35 -68 6 -29 14 -61 17 -70 5 -22 39 -24
46 -4 3 8 -5 90 -18 183 -13 92 -31 251 -40 353 -20 224 -24 244 -53 248 -21
3 -22 1 -22 -103 0 -148 -8 -155 -220 -190 -145 -25 -654 -83 -662 -76 -6 6
-119 953 -113 959 1 1 119 16 261 32 472 54 599 56 634 12 10 -11 22 -48 29
-81 13 -67 25 -81 48 -58 14 14 13 34 -10 204 -15 103 -33 269 -42 368 -9 99
-20 190 -25 203 -9 22 -34 30 -44 14z"/>
<path d="M27826 15803 c-4 -10 -16 -97 -27 -194 -11 -97 -35 -268 -53 -380
-53 -320 -80 -523 -72 -553 8 -34 53 -55 191 -89 152 -38 170 -40 185 -22 18
22 0 38 -68 60 -132 42 -162 133 -127 370 20 131 40 189 76 219 54 46 63 45
564 -22 185 -25 200 -29 203 -48 5 -38 -47 -344 -67 -389 -25 -57 -61 -75
-146 -75 -63 0 -66 -1 -63 -22 3 -21 16 -26 153 -54 83 -17 168 -36 190 -42
81 -24 94 -10 50 54 -19 28 -25 50 -25 88 0 61 46 425 54 434 8 7 658 -77 668
-87 9 -8 -34 -288 -58 -377 -8 -34 -28 -77 -43 -95 -26 -31 -33 -33 -107 -38
-70 -5 -79 -8 -79 -26 0 -15 11 -23 40 -32 39 -11 252 -60 308 -70 l27 -5 0
104 c0 108 45 480 101 837 34 218 34 256 4 256 -16 0 -22 -10 -31 -58 -25
-123 -55 -157 -140 -157 -56 0 -265 25 -904 110 -579 77 -688 98 -737 143 -19
16 -23 32 -25 96 -2 60 -6 76 -19 79 -9 2 -20 -5 -23 -15z"/>
<path d="M27536 14008 c-8 -24 -31 -100 -50 -169 -20 -70 -63 -208 -96 -308
-34 -99 -60 -189 -58 -198 2 -10 12 -18 22 -18 15 0 27 18 48 70 40 97 59 115
122 115 79 0 613 -150 622 -174 2 -6 -13 -63 -34 -126 l-38 -115 -315 -105
c-494 -164 -594 -225 -663 -400 -34 -86 -114 -354 -109 -367 12 -31 40 -11 67
50 61 131 182 216 481 337 162 66 568 220 570 217 1 -1 18 -38 38 -81 76 -161
168 -272 282 -341 184 -110 403 -97 545 32 53 47 120 150 159 242 18 41 54
154 82 250 27 97 79 265 115 373 64 193 73 243 45 243 -16 0 -18 -4 -59 -97
-32 -69 -65 -98 -115 -98 -35 0 -179 42 -747 219 -756 235 -836 264 -865 321
-12 22 -12 37 0 91 14 70 13 79 -15 79 -13 0 -23 -13 -34 -42z m1162 -844
c207 -65 384 -123 392 -131 13 -11 12 -22 -4 -86 -24 -93 -48 -139 -102 -197
-68 -73 -139 -103 -254 -108 -113 -5 -198 13 -306 62 -83 39 -174 118 -207
181 -30 56 -28 140 5 232 29 81 74 163 89 163 6 0 180 -52 387 -116z"/>
<path d="M5922 13607 c-7 -8 -4 -34 8 -82 27 -102 26 -136 -7 -167 -37 -34
-85 -57 -223 -107 -124 -44 -1305 -430 -1329 -434 -11 -1 -29 45 -69 173 -42
138 -54 194 -58 265 -6 110 8 141 86 180 50 25 64 50 35 61 -19 8 -343 -85
-360 -103 -11 -11 -6 -29 30 -100 27 -55 108 -288 214 -616 190 -586 221 -694
221 -773 0 -41 4 -56 16 -61 23 -8 302 26 342 43 43 17 41 48 -3 51 -117 10
-162 36 -203 118 -25 50 -166 444 -161 449 7 7 1235 405 1361 441 143 42 225
53 257 35 13 -6 36 -40 52 -77 22 -47 34 -63 47 -61 9 2 18 11 20 21 2 10 -26
102 -62 205 -36 103 -89 265 -117 360 -52 172 -72 210 -97 179z"/>
<path d="M26863 12018 c-129 -107 -256 -336 -290 -522 -44 -246 71 -472 293
-581 133 -64 262 -80 411 -49 105 21 192 54 383 144 209 99 273 120 364 120
85 0 137 -21 189 -75 99 -102 87 -277 -27 -411 -77 -90 -211 -126 -330 -89
-44 14 -60 15 -69 6 -18 -18 2 -42 64 -75 30 -15 102 -55 161 -87 59 -32 113
-57 120 -54 23 10 121 142 175 237 74 129 104 222 110 339 3 55 1 117 -6 148
-29 138 -121 252 -251 314 -103 48 -168 61 -287 54 -128 -7 -233 -38 -442
-133 -247 -112 -268 -118 -391 -119 -120 0 -168 16 -238 79 -62 56 -86 115
-86 212 -1 73 2 87 37 157 43 87 105 155 174 189 69 33 199 33 301 -1 53 -18
75 -22 83 -14 17 17 4 39 -39 67 -100 63 -321 176 -344 176 -14 0 -43 -14 -65
-32z"/>
<path d="M6220 11645 c-161 -36 -270 -87 -712 -331 -350 -193 -469 -254 -513
-261 -44 -7 -75 12 -122 78 -38 53 -70 63 -65 19 1 -13 40 -87 86 -164 46 -78
111 -196 144 -262 65 -130 84 -156 107 -148 21 8 19 27 -11 86 -14 28 -26 70
-27 95 -3 76 -5 75 618 418 488 269 560 299 721 300 84 0 95 -2 165 -37 120
-60 209 -159 258 -292 43 -115 37 -231 -16 -345 -36 -76 -150 -191 -263 -266
-91 -60 -670 -384 -871 -487 -154 -79 -197 -76 -255 17 -21 33 -35 45 -49 43
-33 -5 -21 -40 68 -191 46 -78 125 -222 176 -319 51 -97 99 -179 106 -182 8
-3 19 2 26 10 9 12 6 28 -20 82 -17 38 -31 85 -31 105 0 66 18 78 603 401 403
222 466 263 578 375 132 133 189 267 189 442 0 117 -28 219 -99 364 -118 237
-249 362 -458 436 -77 27 -243 34 -333 14z"/>
<path d="M26068 10603 c-9 -10 -59 -84 -111 -165 -52 -80 -140 -208 -194 -285
-114 -158 -127 -179 -119 -199 10 -27 34 -14 76 41 85 111 122 125 209 81 54
-28 268 -168 636 -419 697 -474 715 -488 715 -547 0 -19 -13 -57 -30 -86 -30
-54 -31 -87 -1 -82 9 2 79 97 156 211 77 115 168 249 203 298 34 50 62 95 62
100 0 5 -7 12 -17 16 -11 4 -30 -9 -62 -44 -49 -54 -77 -73 -109 -73 -38 0
-137 62 -585 367 -763 517 -837 574 -837 635 0 17 14 56 31 86 24 42 28 57 18
68 -15 18 -23 18 -41 -3z"/>
<path d="M7482 9629 c-381 -49 -758 -351 -878 -701 -74 -217 -54 -440 60 -674
153 -311 423 -549 723 -636 67 -20 100 -23 238 -22 144 1 169 3 250 28 455
137 769 536 768 976 -1 263 -112 508 -328 725 -235 236 -530 344 -833 304z
m469 -215 c94 -28 152 -64 230 -144 60 -61 86 -97 123 -171 107 -216 100 -433
-21 -674 -118 -236 -405 -498 -641 -585 -119 -44 -266 -53 -369 -22 -176 54
-344 225 -405 412 -32 101 -36 272 -9 381 43 172 134 322 286 474 165 164 367
292 521 329 82 20 218 20 285 0z"/>
<path d="M24947 9128 c-69 -79 -133 -150 -142 -158 -48 -40 -255 -271 -255
-285 0 -34 32 -28 78 17 72 69 102 88 136 88 63 0 117 -46 799 -674 l468 -431
-158 -156 c-93 -92 -177 -166 -203 -179 -66 -34 -116 -32 -169 7 -44 32 -71
34 -71 4 0 -18 250 -271 268 -271 5 0 35 35 65 78 64 92 794 886 908 988 43
39 92 77 109 84 17 7 30 20 30 30 0 25 -198 288 -222 296 -36 11 -44 -12 -20
-61 29 -59 37 -115 23 -157 -6 -18 -39 -68 -74 -110 -102 -125 -261 -307 -269
-307 -8 -1 -870 790 -1017 933 -207 202 -222 233 -151 327 43 57 45 72 13 77
-16 2 -50 -31 -146 -140z"/>
<path d="M9381 7934 c-168 -45 -319 -191 -381 -368 -55 -154 -48 -303 28 -611
41 -169 46 -203 47 -305 0 -126 -6 -147 -67 -215 -74 -85 -192 -104 -301 -50
-84 41 -171 138 -193 212 -24 82 -15 167 25 239 18 31 30 62 27 70 -13 34 -47
11 -130 -88 -47 -57 -101 -121 -120 -143 -19 -22 -35 -45 -36 -52 0 -22 121
-162 198 -229 154 -132 296 -194 445 -194 195 0 337 92 431 277 73 147 75 345
5 643 -37 159 -43 201 -43 300 -1 104 1 120 26 172 35 76 97 141 160 168 69
30 181 26 251 -9 71 -35 161 -123 194 -189 24 -49 28 -69 28 -142 -1 -71 -5
-95 -28 -145 -16 -33 -40 -77 -54 -97 -27 -40 -25 -68 5 -68 38 0 302 307 302
352 0 31 -66 133 -133 205 -72 77 -197 173 -279 214 -126 64 -289 85 -407 53z"/>
<path d="M23523 7802 c-82 -65 -200 -156 -263 -201 -163 -118 -200 -150 -200
-172 0 -29 28 -23 95 21 126 84 154 77 275 -69 159 -193 320 -414 340 -469 47
-124 137 -851 128 -1022 -6 -102 -28 -156 -87 -218 -44 -45 -49 -59 -26 -68
19 -8 46 10 170 111 55 45 144 112 197 149 53 38 99 75 103 84 10 28 -11 36
-56 22 -29 -10 -46 -11 -57 -3 -25 15 -52 66 -67 126 -15 57 -128 777 -123
781 3 3 321 -131 607 -255 261 -114 282 -131 242 -188 -12 -16 -21 -36 -21
-45 0 -34 43 -12 157 80 65 53 165 130 223 172 58 41 117 87 133 101 52 48 24
76 -39 39 -34 -20 -52 -23 -134 -23 -83 1 -109 6 -205 38 -198 68 -786 307
-839 341 -73 48 -136 118 -280 310 -212 282 -220 306 -135 392 51 52 60 84 24
84 -8 0 -81 -53 -162 -118z"/>
<path d="M21782 6122 c-66 -24 -153 -83 -187 -128 -14 -19 -38 -60 -53 -92
-24 -50 -27 -69 -27 -162 0 -95 3 -111 28 -162 151 -308 581 -308 725 0 24 50
27 69 27 162 0 97 -2 110 -32 172 -40 86 -106 151 -191 191 -86 40 -207 48
-290 19z"/>
<path d="M11370 5939 c-120 -23 -230 -110 -287 -227 -25 -51 -28 -67 -28 -162
0 -99 2 -110 33 -172 42 -85 105 -148 190 -190 62 -31 74 -33 167 -33 92 0
106 3 167 32 85 40 151 106 191 191 30 62 32 75 32 172 0 93 -3 112 -27 162
-54 116 -169 204 -297 228 -61 11 -78 11 -141 -1z"/>
<path d="M19445 5812 c-325 -230 -557 -578 -646 -968 -18 -81 -22 -128 -22
-259 0 -140 3 -172 26 -260 15 -57 49 -145 79 -205 43 -87 66 -119 133 -185
129 -129 265 -185 455 -185 338 0 615 200 696 500 22 85 23 243 0 330 -51 201
-199 357 -381 405 -126 32 -292 9 -431 -60 -90 -46 -164 -112 -164 -148 0 -37
18 -38 90 -1 36 17 93 38 127 44 158 31 313 -66 402 -254 56 -117 75 -200 76
-331 0 -98 -3 -116 -26 -166 -51 -109 -139 -168 -259 -176 -103 -8 -166 21
-262 117 -63 64 -86 96 -127 182 -191 389 -152 938 94 1322 51 80 146 195 205
248 38 35 51 53 48 70 -5 38 -39 32 -113 -20z"/>
<path d="M14270 5681 c-63 -26 -231 -92 -372 -146 -200 -76 -259 -103 -264
-118 -14 -45 14 -46 201 -8 160 32 176 34 191 19 19 -18 32 52 -115 -623 -143
-660 -188 -832 -229 -868 -29 -25 -73 -28 -190 -12 -62 9 -117 13 -122 10 -6
-3 -10 -15 -10 -25 0 -24 21 -30 250 -75 102 -20 289 -61 415 -91 127 -30 239
-56 250 -59 27 -6 48 8 43 30 -2 13 -31 27 -102 50 -115 37 -156 71 -156 129
0 93 196 1014 332 1556 34 136 59 254 55 263 -10 27 -53 20 -177 -32z"/>
<path d="M17871 5533 c-25 -23 -319 -471 -898 -1367 -45 -71 -83 -135 -83
-142 0 -26 31 -44 78 -44 26 1 216 14 422 29 206 16 376 28 377 26 2 -1 6 -82
9 -181 9 -249 -3 -273 -147 -289 -93 -11 -99 -13 -99 -40 0 -24 3 -25 55 -25
31 0 118 7 193 15 75 8 229 19 342 25 209 11 238 18 225 52 -5 12 -26 17 -93
20 -97 5 -124 17 -148 66 -14 30 -37 182 -47 319 l-5 61 107 6 c153 9 175 17
196 68 21 54 32 172 16 182 -6 4 -33 0 -60 -9 -45 -15 -261 -38 -270 -29 -4 3
-44 539 -76 1004 -9 135 -21 253 -26 263 -14 24 -34 21 -68 -10z m-149 -890
c15 -212 27 -388 25 -389 -4 -5 -559 -45 -563 -41 -2 2 110 189 248 414 139
226 255 409 257 407 2 -2 17 -178 33 -391z"/>
<path d="M15660 5516 c-299 -63 -494 -293 -494 -586 0 -150 46 -264 148 -366
127 -127 332 -181 530 -139 118 25 224 101 188 137 -9 9 -20 8 -49 -7 -26 -13
-68 -20 -136 -23 -89 -4 -101 -2 -151 22 -160 78 -251 293 -218 517 30 207
147 332 312 332 160 0 285 -121 342 -331 29 -105 31 -383 5 -515 -39 -194
-126 -394 -244 -560 -111 -156 -304 -330 -487 -439 -35 -21 -46 -33 -46 -52 0
-53 56 -40 243 56 464 239 777 614 873 1048 24 108 24 333 0 425 -62 240 -223
408 -451 470 -81 23 -281 28 -365 11z"/>
</g>
</svg>
